<svg width="873" height="1579" fill="none" xmlns="http://www.w3.org/2000/svg"><path d="M155.44 453.628C56.642-22.222-332.708-24.231-575.985 15.631L-626 1458.1l34-24.43 120 28.97c79.459 17.85 195 31.99 238.5 16.2 73.5-33.39 298.678 31.98 433.5 56.4 286.678 51.91 379.671 55.63 655.444 21.76 87.604-261.5-168.832-394.83-410.515-534.84C203.245 882.142 504.42 596.633 155.44 453.628z" fill="#BDD7FF"/><path d="M129.244 447.899C32.362 2.186-349.439.304-588 37.641l-9.5 1392.859c52 21.5 219.474 31 313 31 100.028 0 126.939-35.41 210.5-20.5 38.51 6.87 370.887 61.74 424.619 62.55 214.383 3.22 277.222 21.2 488.282-59.21 85.905-244.94-188.782-332.77-425.78-463.918-236.998-131.147 58.338-398.575-283.877-532.523z" fill="#98C1FF"/></svg>