<svg width="529" height="331" fill="none" xmlns="http://www.w3.org/2000/svg"><path d="M60.755 295.523S4.967 235.556 51.32 170.634c41.129-57.606 89.08-53.667 124.262-30.292 14.984 9.957 58.185 1.228 94.954-57.387 50.144-79.933 223.958-31.453 192.266 91.527-15.336 59.513 46.676 61.677 15.078 121.167l-417.125-.126z" fill="#C5DCFF"/><path d="M105.832 214.289l36.337 39.527-39.482 36.378-36.337-39.526 39.482-36.379z" fill="#DFEBFD"/><path d="M105.832 214.289l7.318 7.961-39.482 36.379-7.318-7.961 39.482-36.379z" fill="#BED7FB"/><path d="M221.137 58.58l27.073 3.867-17.966-12.26-.913 3.932-6.584 1.193-1.61 3.268z" fill="#9EC3F6"/><path d="M248.21 62.447l-22.529-11.629-22.08-1.112 44.609 12.74zm-17.966-12.259l17.966 12.258-13.908-19.158-4.058 6.9z" fill="#CDE0FB"/><path d="M372.525 112.05l-6.809 4.892-6.844-4.839a8.397 8.397 0 016.844-3.55 8.354 8.354 0 016.809 3.497zm-6.809-15.418c-6.844 0-12.896 3.408-16.566 8.619l4.323 3.037c2.716-3.851 7.198-6.358 12.243-6.358 5.011 0 9.456 2.472 12.173 6.271l4.305-3.092c-3.688-5.139-9.704-8.477-16.478-8.477zm0-22.66c-14.483 0-27.292 7.206-35.053 18.227l4.321 3.038c6.81-9.644 18.047-15.967 30.732-15.967 12.578 0 23.745 6.217 30.573 15.737l4.286-3.092c-7.779-10.861-20.498-17.943-34.859-17.943z" fill="#fff"/><path d="M365.716 86.37c-10.302 0-19.441 5.103-24.997 12.928l4.321 3.039c4.604-6.448 12.156-10.668 20.676-10.668 8.451 0 15.948 4.15 20.57 10.509l4.286-3.073c-5.574-7.72-14.641-12.736-24.856-12.736z" fill="#fff"/><path d="M188.871 179.235a75.357 75.357 0 01-13.815 10.963c-12.101-8.855-25.031-16.435-38.502-22.57a218.567 218.567 0 005.459-10.732c12.33 1.636 24.184 2.618 35.007 2.871 2.825.083 5.568.083 8.228.061 6.898-.081 13.039-.491 18.3-1.228-3.685 7.643-8.618 14.569-14.677 20.635zm-76.721 18.718c5.619-2.949 11.264-9.72 15.611-15.959 2.243-3.218 4.484-6.779 6.696-10.624 12.755 5.783 25.019 12.888 36.541 21.164-18.991 10.16-40.377 11.311-58.848 5.419zm-47.474-44.122c5.844.235 16.68 1.122 30.52 4.276.991.225 1.98.462 2.97.703-.712 4.159-1.238 8.135-1.563 11.87-.615 7.079-.658 15.241 1.314 21.068a75.814 75.814 0 01-16.447-12.513c-7.363-7.372-13.03-16.004-16.794-25.404zm35.41-4.697a202.27 202.27 0 00-1.146 5.463 251.46 251.46 0 00-2.795-.661c-15.755-3.589-27.577-4.319-33.057-4.443a74.392 74.392 0 01-2.987-12.553c10.733 4.132 22.814 8.098 39.985 12.194zm-48.603-19.981c-14.512-7.092-21.144-13.935-18.176-18.793 2.395-3.934 11.114-6.598 24.46-7.581-2.69 9.091-3.626 18.542-3.07 27.89a96.917 96.917 0 01-3.214-1.516zm15.823-37.87l.002-.005c9.381 11.739 23.208 23.741 39.365 34.149-2.291 6.98-4.246 13.84-5.823 20.415-13.395-3.246-28.965-7.835-41.261-13.042-1.02-10.208.09-20.541 3.152-30.288a75.293 75.293 0 014.565-11.229zm-6.324-32.35c2.47-3.924 7.987-5.95 15.735-5.95 3.705 0 7.924.464 12.56 1.405a95.38 95.38 0 015.386 1.26l.005.001C83.607 62.054 73.864 71.322 66.61 82.942l-.004.007c-6.846-10.177-8.904-18.806-5.624-24.016zm74.199-9.516c5.261 0 10.436.53 15.494 1.582-5.966 2.6-12.058 9.835-16.681 16.472-4.733 6.79-9.459 15.104-13.921 24.406-12.046-6.552-23.424-16.598-28.862-28.43 12.698-9.042 27.969-14.03 43.97-14.03zm53.69 22.274c9.849 9.862 16.384 21.706 19.689 34.09-17.507 1.283-33.549.88-47.888-1.198 2.276-9.308 3.808-18.065 4.479-25.798.742-8.542.652-18.657-2.807-24.35 10.021 3.854 18.971 9.67 26.527 17.256zm-33.492 36.374c-1.969 7.416-4.395 15.141-7.221 22.941a287.427 287.427 0 01-3.377 8.868c-10.615-3.901-21.881-9.482-32.958-16.375a289.658 289.658 0 011.773-5.041c2.626-7.247 5.475-14.223 8.463-20.753 10.455 5.072 21.78 8.346 33.32 10.36zm.943-53.57c2.329.847 3.512 4.193 4.093 6.852.92 4.203 1.086 10.103.481 17.067-.662 7.621-2.187 16.278-4.456 25.497-11.156-1.922-22.304-5.09-32.569-10.078 4.375-9.133 9.001-17.278 13.626-23.916 3.994-5.733 7.901-10.155 11.297-12.79 1.772-1.375 4.156-2.846 6.244-2.846.444 0 .876.068 1.284.215zM87.729 66.082c6.104 12.518 17.867 22.834 30.525 29.676-3.067 6.689-5.987 13.829-8.673 21.243a293.352 293.352 0 00-1.464 4.139c-16.041-10.454-29.623-22.45-38.532-34.058l-.004-.005a76.375 76.375 0 0118.148-20.995zm26.819 82.826c-3.23-.665-6.414-1.36-9.543-2.084 1.473-6.135 3.283-12.531 5.395-19.05 10.981 6.757 22.148 12.255 32.721 16.156a258.9 258.9 0 01-4.08 9.254 417.884 417.884 0 01-24.493-4.276zm18.086 16.985a211.688 211.688 0 00-29.549-10.244c.353-1.817.74-3.668 1.16-5.544 2.782.632 5.604 1.246 8.461 1.835a429.792 429.792 0 0024.867 4.343 210.666 210.666 0 01-4.939 9.61zm-27.201 29.077c-2.329-.846-3.512-4.192-4.093-6.852-.92-4.202-1.086-10.102-.481-17.066.306-3.522.797-7.266 1.459-11.181a207.323 207.323 0 0128.207 9.769c-2.074 3.58-4.17 6.9-6.267 9.909-3.995 5.733-7.901 10.155-11.297 12.789-2.149 1.667-5.199 3.478-7.528 2.632zm99.773-40.016c-5.466.983-12.281 1.557-20.244 1.638-12.356.151-26.546-.826-41.5-2.799a263.475 263.475 0 003.695-8.442c4.641 1.554 9.144 2.786 13.439 3.658 4.92 1 9.411 1.493 13.419 1.493 9.394 0 16.124-2.714 19.449-7.997.547-.871.993-1.793 1.337-2.767h-4.789c-.08.145-.164.289-.251.43-2.47 3.924-7.988 5.951-15.735 5.95-3.706 0-7.925-.464-12.561-1.407-4.041-.819-8.278-1.973-12.648-3.424a291.333 291.333 0 003.357-8.821c2.919-8.057 5.418-16.046 7.44-23.717 16.383 2.418 33.499 2.491 49.941 1.25a76.55 76.55 0 011.566 15.466c0 10.224-1.986 20.143-5.915 29.489zm19.26-13.219l-6.242-.144c2.005 2.604 2.457 5.002 1.207 7.031-1.248 2.068-4.237 3.77-8.699 5.061 3.377-8.997 5.077-18.485 5.077-28.218 0-21.052-8.181-41.656-23.622-57.071-14.946-14.963-35.148-23.648-57.006-23.648-12.274 0-24.134 2.724-34.92 7.93l-.011.005c-3.467-1.059-6.845-1.928-10.104-2.588-16.45-3.343-28.125-1.033-32.867 6.504-4.513 7.168-2.057 17.957 6.898 30.541l-.003.005a81.41 81.41 0 00-5.342 12.297c-16.826 1.003-25.832 3.969-29.107 9.338-3.808 6.249 1.392 14.638 18.033 22.794 2.292 1.127 4.749 2.232 7.328 3.34 1.993 17.534 9.973 34.533 23.068 47.644 7.41 7.398 16.028 13.218 25.628 17.296 29.408 12.419 64.466 6.604 88.405-17.296a80.393 80.393 0 0016.948-24.918c8.208-1.701 13.612-4.366 15.761-7.891 1.494-2.438 1.311-5.142-.43-8.012z" fill="#ADCBF9"/><path d="M187.149 154.332L175.998 287.06s-1.168 8.045 4.809 8.06c9.83.023 48.921 0 48.921 0s-7.396-1.675-7.307-5.444c.106-4.442 13.032-136.6 13.032-136.6l-48.304 1.256z" fill="#D86713"/><path d="M232.901 292.712c-1.933.005-39.27.122-48.842 0-4.173-.053-4.903-3.714-4.938-6.084a11.82 11.82 0 01.126-1.975l.291-3.45.739-8.793.653-7.767.838-9.983.706-8.426 7.923-94.312 48.304-1.254s-5.443 55.307-9.294 95.566a10863.64 10863.64 0 00-1.572 16.557c-.357 3.81-.684 7.307-.968 10.397-.149 1.626-.288 3.139-.412 4.524-.493 5.43-.78 8.898-.784 9.556-.001.384.03.742.095 1.074.792 4.231 6.409 4.37 7.135 4.37z" fill="#F99746"/><path d="M69.837 82.106l27.16 109.219 3.718 14.957 12.65 50.872h235.01L301.75 82.106H69.837z" fill="#F99746"/><path d="M69.837 82.106l-3.764 1.256 42.288 177.592 5.005-3.8-43.53-175.048z" fill="#EE9849"/><path d="M108.361 260.954h233.563l6.449-3.8H113.366l-5.005 3.8z" fill="#D86713"/><path d="M190.382 295.169h50.569v-2.405h-50.569v2.405zm146.608-70.271L298.857 84.422H69.461v-2.316H301.75l38.005 142.481-2.765.311z" fill="#F1A34F"/><path d="M228.097 260.952l-.262 1.839-47.558 9.619.653-7.767.31-3.691h46.857z" fill="#D86713"/><path d="M179.121 292.765h53.78v-15.053h-53.78v15.053z" fill="#EC8432"/><path d="M201.04 292.768c-1.833 0-3.62-.002-5.32-.004h11.445c-2.062.002-4.122.004-6.125.004z" fill="#E78B37"/><path d="M113.365 257.154l-12.65-50.872 115.886 15.435-103.235 35.437" fill="#EC8432"/><path d="M69.837 82.106H301.75l37.628 140.684H103.625L69.837 82.106z" fill="#699DEE"/><path d="M237.099 240.572c-.669-3.449-4.005-6.246-7.452-6.246s-5.697 2.797-5.027 6.246c.67 3.451 4.007 6.248 7.452 6.248 3.447 0 5.699-2.797 5.027-6.248z" fill="#D86713"/><path d="M328.441 216.693H111.3l-24.591-98.072-1.885-7.521-1.608-6.415-1.288-5.137-2.484-9.905h214.01l.151.545 2.575 9.36 1.416 5.137 1.767 6.415 2.071 7.521 27.007 98.072z" fill="#E9F3FE"/><path d="M328.441 217.028H111.3l-24.591-98.073-1.885-7.521-1.608-6.414-1.288-5.136-2.484-9.907h214.01l.151.545 2.575 9.362 1.416 5.136 1.767 6.414 2.071 7.521 27.007 98.073z" fill="#E9F3FE"/><path d="M296.181 99.548H81.928l-2.484-9.905h213.93l.231.545 2.576 9.36z" fill="#AFCDFB"/><path d="M85.397 94.595c-.259-1.038.373-1.88 1.41-1.88s2.088.842 2.346 1.88c.26 1.04-.372 1.882-1.41 1.882-1.037 0-2.087-.843-2.346-1.882zm6.241 0c-.259-1.038.372-1.88 1.41-1.88 1.037 0 2.087.842 2.346 1.88.259 1.04-.372 1.882-1.41 1.882-1.037 0-2.088-.843-2.346-1.882zm6.72 0c-.259-1.038.372-1.88 1.41-1.88 1.037 0 2.088.842 2.346 1.88.259 1.04-.372 1.882-1.41 1.882-1.037 0-2.088-.843-2.346-1.882z" fill="#E9F3FE"/><path d="M178.941 217.028h-21.47c-.206-1.68-.388-3.455-.55-5.309a249.86 249.86 0 01-.672-10.613 355.85 355.85 0 01-.213-5.953 473.347 473.347 0 01-.124-5.8l-.002-.006a581.22 581.22 0 01-.061-7.476v-.001c-.002-.623-.002-1.245-.002-1.864v-.002c0-.586.002-1.165.004-1.746.018-5.362.099-10.621.213-15.512.247-10.822.647-19.838.86-24.173v-.002c.086-1.779.143-2.768.143-2.768l.005.003c.049.007.374.066.887.19.376.093.853.217 1.396.384h.002c.49.148 1.031.331 1.599.548l.006.002c.967.372 2.009.847 2.989 1.444l.045.024c1.604.996 3.052 2.317 3.712 4.061.567 1.481 1.894 9.443 3.498 20.019l.135.912a2471.05 2471.05 0 012.685 18.35 5479.76 5479.76 0 014.915 35.288z" fill="#2B478B"/><path d="M172.928 217.028h-24.991c-.48-2.063-.929-4.054-1.327-5.923-1.098-5.147-1.82-9.364-1.781-11.631.018-1.063.419-1.894 1.107-2.532.472-.439 1.078-.786 1.791-1.058 2.108-.803 5.137-.933 8.309-.731 1.077.067 2.17.172 3.248.302 5.94.722 11.454 2.195 11.454 2.195s.369 1.493.803 4.101a99.42 99.42 0 01.964 7.603c.157 1.776.285 3.711.356 5.773.021.62.043 1.254.067 1.901z" fill="#233862"/><path d="M161.387 199.504l-.249 1.807-1.211 8.778-.206 1.498-.75 5.441h-26.045c-.202-3.596-.389-7.101-.425-10.156-.003-.338-.005-.671-.005-.997 0-4.599.404-8.01 1.721-8.872 1.493-.975 6.445-.708 11.719-.061.526.063 1.056.132 1.585.203 3.074.414 6.15.925 8.623 1.366 1.284.228 2.404.438 3.276.605 1.231.237 1.967.388 1.967.388z" fill="#C65447"/><path d="M132.496 140.329s14.308-9.261 24.571-4.525c1.636.755 3.501 2.862 4.837 4.335 3.709 4.093 10.958 69.099 10.958 69.099s-20.577 6.978-40.366-2.366v-66.543z" fill="#fff"/><path d="M157.881 135.569s14.485 5.943 16.448 10.51c1.962 4.566 8.338 32.608 8.338 35.897 0 3.288-11.102.734-12.889-4.568-1.485-4.404-6.491-17.934-9.131-26.492l-2.766-15.347z" fill="#2B478B"/><path d="M154.873 140.097c-3.162.621-7.807-.041-11.208-2.283 1.535-3.673 2.165-6.572 2.389-8.448.013-.099.022-.197.032-.289.102-.973.087-1.632.039-1.935h8.176s2.235 1.023 2.235 1.73c0 .379.003.739.01 1.085.016.942.054 1.763.103 2.47.155 2.295.418 3.377.418 3.377s.999 3.666-2.194 4.293z" fill="#FFB27D"/><path d="M156.649 132.427c-6.194 1.196-9.789-2.192-10.595-3.061-.115-.124-.174-.198-.174-.198.066-.033.134-.061.206-.091 2.306-.935 7.538-.192 10.46.88.016.942.054 1.763.103 2.47z" fill="#E2915A"/><path d="M144.03 125.797c1.107 5.963 8.793 5.767 12.115 5.392a18.288 18.288 0 001.523-.224c1.054-.281 1.642-1.943 1.915-4.121.542-4.308-.143-10.632-.87-12.25-1.094-2.433-3.155-5.066-10.895-3.166-7.742 1.9-5.208 6.727-3.788 14.369z" fill="#FFB27D"/><path d="M159.002 111.267c-1.058-1.466-3.302-3.257-5.339-4.361-4.376-2.37-9.978.075-10.001.085-6.323 2.783-7.974 7.626-4.622 15.169 3.545 7.976 6.92 7.079 6.92 7.079s-.717-.445-.652-2.933c.004-.14.009-.258.016-.361.032-.509-.147-1.019-.527-1.36-.786-.702-1.169-2.823-.511-3.414.793-.714 1.908.154 2.264.819.311.47.869.636 1.388.306 1.967-1.244.689-3.735 2.569-5.259 1.881-1.525 5.696-.245 8.517-1.46 3.692-1.377.775-3.204-.022-4.31z" fill="#233862"/><path d="M160.017 217.028h-31.155c.223-6.467.509-14.19.81-22.008.077-2.027.158-4.063.236-6.082.036-.856.067-1.706.101-2.557.689-17.363 1.372-33.042 1.516-33.886.327-1.912.636-3.538.971-4.952.978-4.112 2.194-6.368 4.847-8.308.258-.197 2.38-1.266 4.249-2.199a388.813 388.813 0 012.926-1.44v-.002h.002c.309.149.649.581 1.009 1.22.359.637.737 1.488 1.124 2.481 1.424 3.662 2.962 9.266 4.03 13.452l.004.013.002.008v.002a275.582 275.582 0 011.322 5.41c.24 1.019.554 2.992.926 5.663v.007c.504 3.644 1.104 8.586 1.74 14.196v.002l.197 1.748.228 2.039v.003c.024.22.049.442.071.662v.002c.245 2.222.492 4.513.737 6.845l.002.006c.21 1.922 3.121 3.314 3.323 5.272.015.142.03.43.049.83.037.83.082 2.142.136 3.661l.073 2.125c.114 3.256.255 6.822.414 8.538.007.082.014.184.02.31.019.342.034.846.047 1.479.026 1.344.039 3.269.043 5.46z" fill="#2B478B"/><path d="M138.765 159.494c-.009.04-.496 17.556 12.666 19.685 13.162 2.128 4.417 2.691 4.417 2.691s-24.765-1.055-25.174-1.708c-.409-.656 8.091-20.668 8.091-20.668zm11.121 27.205s-.247.175-.721.481l-.025.015c-2.008 1.283-7.968 4.782-16.645 7.127-.91.246-1.852.481-2.822.697.077-2.026.157-4.062.236-6.081a25.03 25.03 0 01-3.262-.452l.104-.801a214.775 214.775 0 015.744-2.259c3.565-1.355 6.207-2.274 6.207-2.274l10.551 3.345.633.202z" fill="#233862"/><path d="M152.678 186.406s-1.355.339-3.513.774l-.023.005c-3.98.8-10.671 1.924-16.647 1.862a38.666 38.666 0 01-2.586-.109 25.03 25.03 0 01-3.262-.452c-2.185-.461-4.014-1.243-5.211-2.464-8.89-9.064 4.851-41.6 7.74-44.766 3.373-3.696 9.529-4.992 12.928-5.437l.411-.053c1.195-.142 1.962-.172 2.004-.174h.002s-.267.859-.713 2.314c-.173.563-.374 1.217-.595 1.945-2.088 6.845-6.117 20.298-7.892 27.887-.651 2.775-.999 4.766-.841 5.36.693 2.59 7.876 3.924 12.427 4.513a75.55 75.55 0 003.727.391l.264 1.081.629 2.591.62 2.546.531 2.186z" fill="#2B478B"/><path d="M177.473 202.001l-30.532-1.288 6.195-38.091 30.531 1.288-6.194 38.091z" fill="#F99746"/><path d="M150.635 178.002s5.943-.414 6.241.973c.695 3.232-5.11 5.887-6.99 5.705-1.88-.181-.619-6.893.749-6.678zm31.363-6.357s-5.687-1.781-6.297-.5c-1.424 2.984 3.61 6.912 5.482 7.17 1.871.258 2.195-6.564.815-6.67z" fill="#FFB27D"/><path d="M145.138 133.681s-2.501 1.192-3.754 2.992c0 0 9.346 16.246 9.304 16.093-.042-.152-3.159-17.005-5.55-19.085zm11.64.228c.823.312 2.402 1.93 2.758 2.825l1.111 14.182s-2.372-10.406-3.58-15.112c-.307-1.196-.25-1.559-.289-1.895z" fill="#233862"/><path d="M163.257 163.049s.241-1.058 1.631-.935c1.39.122 9.196.508 9.196.508s1.506-.025 1.367.94l-12.194-.513z" fill="#C65447"/><path d="M154.301 127.142s1.013.925 2.648.637c.97-.169 1.513-1.431 1.513-1.431s-1.864-.336-4.161.794zm144.67 11.853l-22.552.085-7.313-28.031 22.552-.083 7.313 28.029z" fill="#fff"/><path d="M286.065 114.648l-9.456.035-.109-.414 9.456-.034.109.413zm1.509 1.154l-11.872.043-.108-.415 11.873-.043.107.415zm3.265 5.703l-15.422.058-.107-.415 15.42-.057.109.414zm.357 1.367l-15.422.056-.107-.413 15.42-.058.109.415zm.356 1.367l-15.421.056-.109-.413 15.422-.058.108.415zm.357 1.367l-15.421.056-.109-.415 15.421-.056.109.415zm.357 1.367l-15.422.057-.108-.416 15.421-.056.109.415zm.868 3.325l-15.422.056-.108-.413 15.421-.058.109.415zm.355 1.367l-15.42.056-.109-.413 15.422-.058.107.415zm.357 1.367l-15.42.056-.109-.415 15.42-.056.109.415zm.357 1.366l-15.422.058-.107-.416 15.42-.056.109.414zm.356 1.367l-15.421.058-.107-.416 15.42-.056.108.414z" fill="#ADCBF9"/><path d="M308.058 173.826l-22.552.083-7.313-28.029 22.552-.084 7.313 28.03z" fill="#fff"/><path d="M295.152 149.48l-9.456.034-.109-.415 9.458-.035.107.416zm1.51 1.151l-11.872.043-.109-.413 11.873-.045.108.415zm3.265 5.705l-15.421.057-.109-.414 15.422-.058.108.415zm.357 1.367l-15.422.057-.108-.416 15.42-.056.11.415zm.355 1.366l-15.42.058-.108-.416 15.421-.056.107.414zm.357 1.367l-15.42.058-.109-.416 15.422-.056.107.414zm.357 1.367l-15.422.056-.107-.414 15.42-.058.109.416zm.868 3.326l-15.422.057-.107-.416 15.42-.056.109.415zm.355 1.366l-15.42.058-.107-.416 15.42-.056.107.414zm.358 1.367l-15.421.058-.109-.416 15.422-.056.108.414zm.357 1.367l-15.422.056-.108-.414 15.42-.058.11.416zm.355 1.367l-15.42.056-.108-.414 15.421-.058.107.416z" fill="#ADCBF9"/><path d="M317.208 208.891l-22.553.083-7.314-28.03 22.554-.084 7.313 28.031z" fill="#fff"/><path d="M304.301 184.544l-9.456.035-.109-.416 9.457-.034.108.415zm1.509 1.152l-11.871.045-.109-.416 11.873-.044.107.415zm3.265 5.705l-15.42.056-.11-.414 15.422-.058.108.416zm.357 1.367l-15.422.056-.108-.415 15.421-.057.109.416zm.357 1.365l-15.422.058-.107-.415 15.42-.057.109.414zm.355 1.367l-15.42.058-.109-.415 15.422-.057.107.414zm.357 1.367l-15.42.056-.109-.413 15.42-.058.109.415zm.868 3.327l-15.42.056-.109-.415 15.42-.057.109.416zm.357 1.365l-15.422.058-.107-.415 15.42-.057.109.414zm.356 1.367l-15.42.058-.11-.415 15.423-.057.107.414zm.357 1.367l-15.42.056-.109-.413 15.42-.058.109.415zm.357 1.367l-15.422.056-.107-.413 15.42-.058.109.415z" fill="#ADCBF9"/><path d="M287.555 209.127l-78.878.292-22.7-87.009 10.274-11.077 65.725-.243 25.579 98.037z" fill="#fff"/><path d="M240.249 125.795l-27.799.102-.319-1.219 27.799-.103.319 1.22zm4.438 3.388l-34.902.127-.318-1.218 34.901-.129.319 1.22zm9.597 16.768l-45.334.167-.319-1.218 45.334-.169.319 1.22zm1.048 4.019l-45.334.167-.319-1.22 45.334-.167.319 1.22zm1.048 4.016l-45.334.169-.317-1.22 45.332-.167.319 1.218zm1.048 4.018l-45.334.168-.317-1.218 45.332-.169.319 1.219zm1.048 4.019l-45.334.167-.317-1.22 45.334-.167.317 1.22zm2.551 9.776l-45.334.167-.317-1.218 45.333-.169.318 1.22zm1.048 4.018l-45.334.167-.317-1.219 45.333-.167.318 1.219zm1.048 4.017l-45.334.169-.317-1.22 45.334-.167.317 1.218zm1.048 4.018l-45.332.168-.319-1.22 45.334-.167.317 1.219zm1.048 4.019l-45.332.167-.319-1.22 45.334-.167.317 1.22zm-79.242-65.461l13.152-.048-2.878-11.029-10.274 11.077z" fill="#ADCBF9"/><path d="M375.959 277.365h-64.214V254.66h64.419c5.009 0 9.069 4.064 9.069 9.077v4.343c0 5.127-4.153 9.285-9.274 9.285z" fill="#FCECDB"/><path d="M440.04 264.001v3.416a9.889 9.889 0 01-1.347 5.004 9.93 9.93 0 01-8.59 4.944H309.777a1.442 1.442 0 01-1.441-1.442v-.513c0-.794.645-1.441 1.441-1.441h73.35a9.19 9.19 0 001.029-1.548 9.232 9.232 0 001.077-4.341v-4.343a9.064 9.064 0 00-1.999-5.681h-73.457a1.442 1.442 0 01-1.441-1.443v-.51c0-.798.645-1.443 1.441-1.443H430.71c4.262 0 7.856 2.86 8.972 6.767.234.818.358 1.682.358 2.574z" fill="#699DEE"/><path d="M439.682 261.427h-54.747a9.064 9.064 0 00-1.701-3.371h-73.457a1.442 1.442 0 01-1.441-1.443v-.51c0-.798.645-1.443 1.441-1.443H430.71c4.262 0 7.856 2.86 8.972 6.767z" fill="#548EE2"/><path d="M311.745 266.011l8.91.383-8.91.23v-.613zm0 3.564l21.196.382-21.196.23v-.612z" fill="#F4D2B8"/><path d="M327.059 294.977h68.357v-17.66h-68.912c-4.718 0-8.542 3.829-8.542 8.553 0 5.029 4.072 9.107 9.097 9.107z" fill="#2B478B"/><path d="M391.491 294.977h77.798v-17.66h-77.994c-4.798 0-8.686 3.892-8.686 8.695v.073c0 4.91 3.978 8.892 8.882 8.892z" fill="#FCECDB"/><path d="M377.415 294.977h94.575a1.32 1.32 0 000-2.641h-94.575a1.32 1.32 0 00-1.319 1.321c0 .729.59 1.32 1.319 1.32zm0-15.019h94.575a1.32 1.32 0 000-2.641h-94.575a1.32 1.32 0 00-1.319 1.32c0 .73.59 1.321 1.319 1.321z" fill="#2B478B"/><path d="M469.289 286.148l-10.509.296 10.509.179v-.475zm0-4.065l-25.002.296 25.002.179v-.475z" fill="#F4D2B8"/><path d="M444.545 282.32s1.071.759 1.427 2.007c.063.217.102.452.111.697.059 1.658 0 5.409 0 5.409l3.162-1.876 3.156 1.876v-5.085c0-.961-.271-1.895-.774-2.507-.243-.298-.539-.521-.874-.521h-6.208z" fill="#699DEE"/><path d="M444.545 282.32s1.071.76 1.427 2.007l6.338.075s-.248-1.787-1.557-2.082h-6.208z" fill="#568CDB"/><path d="M383.537 254.708h69.841v-25.947h-70.071c-5.593 0-10.127 4.538-10.127 10.138v5.44c0 5.726 4.637 10.369 10.357 10.369z" fill="#FCECDB"/><path d="M374.823 238.828v5.584c.016 2.385 1.336 4.454 3.273 5.561a6.51 6.51 0 003.229.852h75.845c.889 0 1.61.722 1.61 1.612v.659c0 .89-.721 1.612-1.61 1.612H326.145a11.08 11.08 0 01-9.089-4.735 11.07 11.07 0 01-2.008-6.375v-4.406a10.416 10.416 0 0110.419-10.431H457.17c.889 0 1.61.72 1.61 1.61v.659a1.61 1.61 0 01-1.61 1.61h-76.077a6.28 6.28 0 00-4.614 2.016 6.17 6.17 0 00-1.656 4.172z" fill="#B5453C"/><path d="M453.378 241.734l-9.724.436 9.724.263v-.699zm0-5.971l-23.132.435 23.132.263v-.698z" fill="#F4D2B8"/><path d="M430.484 236.112s1.527.823 2.031 2.175c.091.237.148.49.159.756.084 1.798 0 5.864 0 5.864l4.508-2.032 4.495 2.032v-5.511c0-1.043-.385-2.056-1.103-2.721-.347-.321-.767-.563-1.244-.563h-8.846z" fill="#F99746"/><path d="M430.484 236.112s1.527.823 2.031 2.175l9.033.081s-.354-1.936-2.218-2.256h-8.846z" fill="#ED7D2B"/><path d="M384.752 219.14c3.997 6.964 9.024 9.654 9.024 9.654h20.919s-32.993-14.968-29.943-9.654z" fill="#233862"/><path d="M400.817 273.034c.545.625.615 1.324.345 2.07l-.006.01c-.5 1.38-2.146 2.923-4.062 4.462-.245.197-.461.377-.651.543-.05.044-.1.087-.148.132-.038.033-.074.07-.112.101-1.785 1.648-1.113 2.026-4.321 5.369-3.657 3.81-6.175 3.878-6.891 3.532-.606-.297.625-2.317 1.989-4.588.066-.109.131-.22.199-.331l.543-.912c1.599-2.734 1.187-4.017.809-8.083-.308-3.307-5.136-18.466-5.136-18.466l7.009-1.21s2.109 12.073 4.435 13.932c1.243.991 2.635 1.004 3.832 1.739.084.05.167.103.248.157.68.45 1.371.915 1.918 1.543z" fill="#FFB27D"/><path d="M400.817 273.034c.545.625.615 1.324.345 2.07l-.006.01c-.61 1.379-2.217 2.913-4.069 4.447-.241.2-.454.386-.644.558-.05.044-.1.087-.148.132-.038.033-.074.07-.112.101-1.785 1.649-1.113 2.026-4.321 5.369-3.657 3.81-6.175 3.878-6.891 3.532-.606-.297.625-2.317 1.989-4.588.713-.261 4.019-1.607 6.52-4.809 2.202-2.814 3.67-6.428 5.171-8.522.084.05.167.103.248.157.68.45 1.371.915 1.918 1.543z" fill="#233862"/><path d="M344.301 268.651c-.433 2.167-3.516 1.804-6.961.962-3.447-.843-2.627.159-7.53-.384-4.905-.545-6.389-2.375-6.54-3.105-.134-.647 2.29-.875 4.889-1.175.327-.036.654-.078.983-.118 2.934-.369 5.083-2.264 7.748-3.821 2.525-1.475 6.292-7.482 6.292-7.482l6.725.533s-3.529 5.367-4.893 7.699c-.804 1.372-.761 3.187-.661 4.587.052.763.102 1.541-.052 2.304z" fill="#FFB27D"/><path d="M337.34 269.613c-3.447-.843-2.627.159-7.53-.384-4.905-.545-6.389-2.375-6.54-3.105-.134-.647 2.29-.875 4.889-1.175l.024.05s2.941 2.087 7.023 2.184c3.326.081 6.85-.872 9.147-.836.052.763.102 1.541-.052 2.304-.433 2.167-3.516 1.804-6.961.962zm32.732-44.01l6.287 16.934 8.207 22.112s2.227.217 4.36-.398c1.964-.568 4.217-2.054 4.217-2.054s-2.278-23.743-6.53-37.372c-1.089-3.499-2.311-6.329-3.658-7.921-6.59-7.798-12.883 8.699-12.883 8.699z" fill="#233862"/><path d="M376.465 198.708c4.117-1.331 15.865.377 27.663 2.689l2.471-4.08 25.487-1.992s8.411 18.671 3.807 30.569c-.678 1.748-2.022 2.87-4.315 2.906h-.372s-15.169-.008-20.095-.008c-12.675 0-26.824-8.722-28.656-9.089-2.995-.599-4.194 5.398-7.189 11.697-2.997 6.299-28.163 27.895-28.163 27.895s-3.868.038-5.467-.561c-1.717-.645-2.345-1.483-2.345-1.483s27.885-55.545 37.174-58.543z" fill="#2B478B"/><path d="M406.75 162.178c9.075 5.003 27.486 15.375 27.582 15.308 0 0 6.768 2.553 10.607 0 6.399-4.254 9.831-15.705-1.872-25.559-5.837-4.913-9.983-6.11-10.613-13.956-.342-4.257-6.154-18.308-15.812-17.009-.807.11-5.776.341-9.041 2.057-8.318 4.375-14.458 37.223-.851 39.159z" fill="#233862"/><path d="M414.356 157.92c-.04.027 4.465 1.566 7.479.23 2.833-1.254 4.98-5.921 4.937-5.925-1.287-.059-2.704-1.188-3.794-8.593l-.548.199-9.231 3.325s.669 2.964 1.101 5.788c.365 2.371.56 4.64.056 4.976z" fill="#FFB27D"/><path d="M413.199 147.156s.669 2.964 1.101 5.788c5.303-.955 7.382-6.243 8.13-9.113l-9.231 3.325z" fill="#ED975D"/><path d="M411.825 150.099s12.628-1.697 11.451-9.555c-1.175-7.858-.339-13.367-8.452-12.617-8.112.751-9.226 3.985-9.471 6.702-.245 2.719 3.156 15.708 6.472 15.47z" fill="#FFB27D"/><path d="M405.812 130.323s8.086 6.974 13.584 7.537c5.5.563 7.581-1.205 7.581-1.205s-3.241-2.694-5.192-7.042a3.862 3.862 0 00-3.187-2.282c-3.926-.339-11.371-.495-12.786 2.992z" fill="#233862"/><path d="M410.866 129.697s-2.704 2.619-3.556 4.562c-.821 1.873-1.068 6.355-.413 8.134 0 0-4.214-8.202-1.828-12.187 2.529-4.227 5.797-.509 5.797-.509z" fill="#233862"/><path d="M403.721 176.545c.382 25.593.106 20.246 2.902 22.674.674.584 2.568.933 5.061 1.097 7.84.522 21.618-.771 22.142-2.221 1.809-5.019.533-6.578 2.042-14.261.157-.816.35-1.701.579-2.664 1.258-5.277 2.483-7.072-1.979-15.549-4.047-7.679-8.251-13.912-8.63-13.687-10.675 6.345-11.537 1.011-11.537 1.011s-10.767 11.117-10.58 23.6z" fill="#fff"/><path d="M376.359 242.537l8.207 22.112s2.227.217 4.36-.398c1.964-.568 4.217-2.054 4.217-2.054s-2.278-23.743-6.53-37.372l-10.254 17.712z" fill="#2B478B"/><path d="M414.3 152.943s-10.985 1.866-12.275 6.601l-8.882 32.573s5.584 1.005 8.165-1.579c2.58-2.581 8.978-23.962 8.978-23.962l4.014-13.633z" fill="#fff"/><path d="M411.684 200.316c7.839.522 21.618-.771 22.142-2.221 1.809-5.019.533-6.578 2.042-14.261l-3.782-10.658s.626 11.87-2.872 14.991c-3.491 3.121-14.314 6.026-16.014 8.634-.82 1.253-1.359 2.507-1.516 3.515z" fill="#EBF3FF"/><path d="M420.666 195.325s-7.734-1.723-8.982-1.036c-1.248.687-4.298 3.189-4.68 4.059-.382.871 2.779-.662 3.806-.936.666-.179 2.418.43 3.286.72 3.649 1.218 5.885.59 5.885.59l.685-3.397z" fill="#FFB27D"/><path d="M425.845 151.927s10.383.641 13.979 5.66c5.06 7.066 15.098 37.178 9.345 41.195-6.479 4.523-29.487 1.183-29.487 1.183s-.765-3.583.299-5.315c1.067-1.733 18.378-4.534 19.177-5.333.798-.801-9.987-15.598-9.987-17.998 0-2.4-3.326-19.392-3.326-19.392z" fill="#fff"/><path d="M411.309 196.444s-1.62 2.091-2.151 2.341c-.532.25-.874.187-.874.187l1.091-1.967 1.934-.561zm.375-2.155l-4.711 2.29s.2.328.78.301c.58-.026 2.043-.562 2.043-.562l1.888-2.029z" fill="#FFB27D"/><path d="M409.158 201.991h-37.266l-11.211-27.91h37.21l11.267 27.91z" fill="#F99746"/><path d="M371.454 200.904h49.212v1.087h-48.774l-.438-1.087z" fill="#ED7D2B"/><path d="M381.298 188.036c-.281-.981.286-1.776 1.267-1.776.98 0 2.001.795 2.283 1.776.281.982-.286 1.776-1.267 1.776-.978 0-2.002-.794-2.283-1.776z" fill="#fff"/><path d="M70.501 212.952l-.794.55a1.869 1.869 0 01-2.601-.472l-4.616-6.666a1.875 1.875 0 01.472-2.605l1.136-.79a.367.367 0 01.417.603l-1.136.789a1.142 1.142 0 00-.287 1.586l4.615 6.666a1.14 1.14 0 001.584.288l.793-.551a1.142 1.142 0 00.287-1.586l-3.064-4.425a.367.367 0 01.602-.417l3.064 4.425a1.876 1.876 0 01-.472 2.605z" fill="#AFCDFB"/><path d="M75.561 219.526l-1.423.988c-1.32.917-3.194.51-4.175-.907l-6.94-10.024a.367.367 0 01.093-.51.367.367 0 01.51.093l6.939 10.022c.751 1.086 2.167 1.41 3.156.723l1.423-.986c.99-.687 1.183-2.128.432-3.214l-7.904-11.416c-.751-1.086-2.167-1.41-3.157-.723a.367.367 0 01-.417-.603c1.321-.917 3.194-.509 4.175.909l7.905 11.416c.98 1.417.704 3.317-.617 4.232zm9.546 52.352l.172 1.412a2.755 2.755 0 01-2.4 3.065l-11.833 1.438a2.755 2.755 0 01-3.062-2.401l-.245-2.022a.539.539 0 111.068-.131l.245 2.022a1.676 1.676 0 001.864 1.463l11.834-1.438a1.677 1.677 0 001.46-1.865l-.171-1.413a1.677 1.677 0 00-1.864-1.462l-7.855.955a.54.54 0 01-.13-1.071l7.856-.953a2.753 2.753 0 013.061 2.401z" fill="#AFCDFB"/><path d="M97.126 269.798l.307 2.532c.285 2.35-1.53 4.51-4.045 4.816l-17.79 2.162a.54.54 0 01-.13-1.071l17.79-2.161c1.927-.234 3.32-1.856 3.107-3.617l-.307-2.53c-.214-1.761-1.954-3.002-3.88-2.769l-20.265 2.463c-1.926.235-3.32 1.857-3.106 3.616a.54.54 0 01-.47.601.54.54 0 01-.598-.47c-.285-2.35 1.53-4.512 4.044-4.816l20.265-2.463c2.515-.306 4.793 1.357 5.078 3.707z" fill="#AFCDFB"/><path d="M286.756 104.23a1.64 1.64 0 113.28 0 1.64 1.64 0 11-3.28 0z" fill="#F99746"/><path d="M509.966 296.126H31.611a.545.545 0 01-.543-.543v-.185c0-.3.244-.545.543-.545h478.355c.299 0 .544.245.544.545v.185a.546.546 0 01-.544.543z" fill="#2E3552"/></svg>