<svg width="573" height="364" fill="none" xmlns="http://www.w3.org/2000/svg"><g clip-path="url(#clip0)"><path d="M517.961 334.554H274.559c-1.147 0-2.281-.056-3.399-.165H122.828c-17.605 0-31.877-14.722-31.877-32.882v-7.513c0-21.764-17.103-39.405-38.2-39.405-21.628 0-39.16-18.087-39.16-40.395v-.002c0-22.309 17.532-40.395 39.16-40.395h6.415c21.098 0 38.2-17.641 38.2-39.404 0-18.16 14.273-32.882 31.878-32.882h42.214c-10.572-6.494-17.736-19.034-17.736-33.44v-.001c0-21.072 15.327-38.156 34.234-38.156h240.316c16.984 0 30.754 15.35 30.754 34.281 0 22.69 16.502 41.083 36.858 41.083h6.189c20.866 0 37.783 18.853 37.783 42.113 0 23.258-16.917 42.113-37.783 42.113-20.356 0-36.856 18.393-36.856 41.081v7.833c0 10.658-4.364 20.18-11.211 26.467h63.955c19.246 0 34.848 15.597 34.848 34.834 0 19.24-15.602 34.835-34.848 34.835zm-412.888-94.46c-2.378 0-4.306 1.89-4.306 4.221v2.679c0 2.332 1.928 4.221 4.306 4.221l29.534-.011h17.666v-.677h-.112s-1.723-.777-1.723-4.892c0-3.267 1.723-4.853 1.723-4.853h-.06l.055-.001.117-.002v-.674h-1.559a1.687 1.687 0 00-.19-.011h-6.528c2.379 0 4.307-1.497 4.307-3.347v-2.125c0-1.744-1.712-3.174-3.9-3.335h8.241v-.54h-.099s-1.522-.621-1.522-3.909c0-2.61 1.522-3.875 1.522-3.875h-.054l.05-.002.103-.002v-.539h-1.377a1.856 1.856 0 00-.168-.007h-40.158c-2.101 0-3.805 1.509-3.805 3.371v2.14c0 1.729 1.469 3.154 3.36 3.349h-11.97c-.064 0-.128.002-.19.007h-1.559v.535l.117.002.057.002h-.062s1.724 1.256 1.724 3.849c0 3.265-1.724 3.882-1.724 3.882h-.112v.537h17.245l29.974.007h-38.923zM420.972 54.298c-.572 0-1.149.016-1.728.053-14.985.943-26.368 13.874-25.429 28.881.905 14.43 12.868 25.526 27.106 25.526.572 0 1.149-.018 1.728-.055 14.983-.941 26.369-13.872 25.429-28.881-.905-14.43-12.869-25.524-27.106-25.524z" fill="#81B3FF"/><path d="M167.629 227.14c-.735-.002-1.33-.404-1.328-.898.001-.493.597-.891 1.332-.891.735.001 1.33.404 1.328.897-.001.495-.598.894-1.332.892zm.008-3.36c.521.002.943.262.942.582-.001.321-.424.579-.945.577-.521-.001-.942-.262-.941-.582 0-.32.423-.579.944-.577zm.002-.708c-.971-.002-1.76 1.117-1.763 2.499-.004 1.383.78 2.506 1.75 2.508.971.002 1.76-1.116 1.764-2.499.003-1.383-.781-2.504-1.751-2.508z" fill="#4A6CBD"/><path d="M163.65 228.599a6.062 6.062 0 00-.565 2.537l-.045 18.326a2.015 2.015 0 002.02 2.009l10.484.026a2.015 2.015 0 002.03-1.999l.045-18.327a6.068 6.068 0 00-.552-2.539l-13.417-.033z" fill="#663199"/><path d="M163.65 228.599a6.062 6.062 0 00-.565 2.537l-.045 18.326a2.015 2.015 0 002.02 2.009l10.484.026a2.015 2.015 0 002.03-1.999l.045-18.327a6.068 6.068 0 00-.552-2.539l-13.417-.033z" fill="#663199"/><path d="M177.62 231.171l-.045 18.327a2.015 2.015 0 01-2.03 1.999l-10.483-.026a2.014 2.014 0 01-2.021-2.009l.045-18.326a6.075 6.075 0 01.564-2.537l13.417.035a6.08 6.08 0 01.553 2.537z" fill="#F35F52"/><path d="M165.82 249.469l.045-18.325a6.058 6.058 0 01.564-2.537l-2.779-.008a6.062 6.062 0 00-.565 2.537l-.045 18.326a2.015 2.015 0 002.02 2.009l2.78.006a2.012 2.012 0 01-2.02-2.008z" fill="#F47374"/><path d="M177.62 231.171l-.045 18.327a2.015 2.015 0 01-2.03 1.999l-4.286-.009c1.129.001 2.049-.894 2.051-2.001l.045-18.327a6.038 6.038 0 00-.558-2.537l4.269.011c.365.797.556 1.663.554 2.537z" fill="#B14A40"/><path d="M177.067 228.632l-13.419-.033a1.066 1.066 0 011.075-1.057l11.274.027a1.066 1.066 0 011.07 1.063z" fill="#1B375A"/><path d="M177.584 245.88l-14.534-.036-.006 2.277 14.534.036.006-2.277z" fill="#375491"/><path d="M150.443 222.699h1.604a1.69 1.69 0 00-.948-.286h-40.158c-2.101 0-3.805 1.509-3.805 3.371v2.14c0 1.862 1.704 3.371 3.805 3.371l39.709-.011-.207-8.585z" fill="#82A9DE"/><path d="M127.645 222.42c-2.01 0-3.638 1.444-3.638 3.224v2.42c0 1.78 1.628 3.224 3.638 3.224h24.999v-.541h-.103l-6.356-.533-1.284-4.467s2.479-2.466 2.641-2.529c.162-.064 4.999-.257 4.999-.257l.103-.002v-.539h-24.999z" fill="#4A6CBD"/><path d="M151.023 226.838c0-2.61 1.522-3.875 1.522-3.875h-24.388c-1.846 0-3.342 1.325-3.342 2.959v1.864c0 1.634 1.496 2.961 3.342 2.961h24.388s-1.522-.621-1.522-3.909z" fill="#F7D99B"/><path d="M124.816 227.855v-.002.002zm-.001-.018v-.009.009zm0-.015v-.016.016zm0-.02v-.016.016z" fill="#4366BA"/><path d="M124.912 228.496a2.676 2.676 0 01-.096-.641v-.002l-.001-.016v-1.915c0-1.634 1.496-2.959 3.342-2.959h24.388s-15.226.191-22.232 1.479c-3.002.554-4.578 2.27-5.401 4.054z" fill="#CACB9A"/><path d="M149.782 240.455h1.814a1.761 1.761 0 00-1.072-.361h-45.451c-2.378 0-4.306 1.89-4.306 4.221v2.679c0 2.332 1.928 4.221 4.306 4.221l44.943-.017-.234-10.743z" fill="#59C69F"/><path d="M123.978 240.105c-2.274 0-4.117 1.808-4.117 4.035v3.029c0 2.228 1.843 4.035 4.117 4.035h28.295v-.677h-.117l-7.193-.668-1.454-5.589s2.806-3.089 2.989-3.169c.183-.078 5.658-.32 5.658-.32l.117-.002v-.674h-28.295z" fill="#43927A"/><path d="M150.438 245.635c0-3.267 1.723-4.853 1.723-4.853h-27.603c-2.089 0-3.782 1.66-3.782 3.708v2.329c0 2.048 1.693 3.708 3.782 3.708h27.603s-1.723-.777-1.723-4.892z" fill="#F7D99B"/><path d="M120.776 246.85v-.002.002zm0-.013v-.004.004z" fill="#3C8777"/><path d="M120.886 247.709a3.631 3.631 0 01-.11-.846v-2.373c0-2.048 1.693-3.708 3.782-3.708h27.603s-17.233.241-25.163 1.853c-3.397.692-5.181 2.841-6.112 5.074z" fill="#CACB9A"/><path d="M99.269 231.557h-1.815a2.1 2.1 0 011.073-.284h45.469c2.379 0 4.307 1.5 4.307 3.349v2.125c0 1.85-1.928 3.347-4.307 3.347l-44.96-.01.233-8.527z" fill="#F35F52"/><path d="M125.083 231.28c2.275 0 4.119 1.434 4.119 3.202v2.404c0 1.769-1.844 3.201-4.119 3.201H96.777v-.537h.117l7.196-.529 1.455-4.436s-2.808-2.451-2.991-2.513c-.183-.064-5.66-.255-5.66-.255l-.117-.002v-.535h28.306z" fill="#B14A40"/><path d="M98.613 235.668c0-2.593-1.724-3.849-1.724-3.849h27.614c2.09 0 3.784 1.316 3.784 2.941v1.849c0 1.624-1.694 2.941-3.784 2.941H96.889s1.724-.617 1.724-3.882z" fill="#F7D99B"/><path d="M128.287 236.644v-.002.002zm0-.012v-.002.002zm0-.011v-.002.002z" fill="#91433C"/><path d="M128.176 237.315c-.931-1.772-2.716-3.478-6.114-4.026-7.933-1.281-25.173-1.47-25.173-1.47h27.614c2.09 0 3.784 1.316 3.784 2.941v1.884a2.328 2.328 0 01-.111.671z" fill="#CACB9A"/><path d="M247.699 333.939l-4.262-.808 18.419-97.658 4.264.809-18.421 97.657zm141.382.444h5.127l-19.107-98.91-4.262.809 18.242 98.101zm-93.874 0h5.127l-19.107-98.91-4.264.809 18.244 98.101zm47.156 0l-4.164.049 18.321-98.514 4.262.808-18.419 97.657z" fill="#1E4150"/><path d="M323.764 102.264c16.881 1.807 38.726 3.715 60.656 40.914 23.968 40.658 11.352 101.39-7.566 118.267-18.918 16.877-80.706 37.714-132.645 6.517 0 0-31.361-18.904-15.266-50.281 24.768-48.283 21.269-58.353 32.343-77.275 11.074-18.921 26.647-41.977 62.478-38.142z" fill="#F7D99B"/><path d="M384.42 143.178c-14.969-25.389-29.896-34.336-43.233-38.035 5.158 5.337 10.388 12.202 15.624 21.081 23.969 40.659 11.351 101.391-7.567 118.268-16.777 14.965-67.267 33.042-114.705 15.186 4.877 5.396 9.67 8.284 9.67 8.284 51.939 31.197 113.727 10.36 132.645-6.517 18.918-16.877 31.534-77.609 7.566-118.267z" fill="#F3C267"/><path d="M89.573 131.082c-.48 3.773 3.45 6.765 6.945 6.53 3.864-.262 7.141-3.429 7.706-7.224.611-4.107-1.858-7.392-5.678-7.693-3.718-.293-6.097 3.016-5.023 6.354.77 2.393 2.956 3.285 4.057 2.624.858-.513.806-1.81-.233-2.04-.416-.093-.845.14-1.066.459-.91-.361-1.775-2.017-1.188-3.802.75-2.284 3.637-2.413 5.43-1.349 2.283 1.354 2.641 4.272 1.804 6.598-.879 2.44-3.277 4.364-5.889 4.55-2.958.209-5.562-2.057-5.798-5.003-.056-.696-.982-.679-1.067-.004z" fill="#F47374"/><path d="M349.674 5.183c-17.471-.103-31.685 8.509-31.749 19.236-.033 5.363 3.479 10.241 9.184 13.79l-7.185 15.776 14.994-12.209c4.345 1.413 9.284 2.224 14.525 2.255 17.472.104 31.687-8.508 31.75-19.237.064-10.727-14.049-19.507-31.519-19.61z" fill="#F7D99B"/><path d="M337.571 26.456c1.551 5.886 7.582 9.4 13.468 7.847 5.889-1.552 9.403-7.58 7.852-13.466-1.553-5.886-7.584-9.4-13.47-7.848-5.887 1.553-9.403 7.583-7.85 13.467z" fill="#F3C267"/><path d="M354.375 23.833a5.895 5.895 0 01-11.398 3.005l11.398-3.005z" fill="#EBEBE9"/><path d="M169.336 157.494l48.237-.362a1.997 1.997 0 001.979-2.01l-.242-32.234a1.995 1.995 0 00-2.011-1.978l-48.235.362a1.993 1.993 0 00-1.98 2.008l.242 32.235a1.995 1.995 0 002.01 1.979z" fill="#F35F52"/><path d="M217.831 138.841l15.573 15.863-19.213-3.584 3.64-12.279z" fill="#F35F52"/><path d="M203.78 136.604l-4.688-.084s-5.905-4.408-6.087-5.966c-.181-1.558.788-4.856-.128-5.271-.916-.413-2.857-.74-4.082 1.324-.89 1.497-.149 6.963-.699 7.329-.346.229-3.041.256-5.009.245a3.48 3.48 0 00-3.093 1.848l-.002.003a1.85 1.85 0 00.448 2.288l1.045.874-.822 1.094a1.851 1.851 0 00.357 2.586l.825.628-.565.644a1.85 1.85 0 00.329 2.737l.733.515-.109.202a1.852 1.852 0 00.604 2.428l.738.488 12.483.22a8.56 8.56 0 003.412-.64l4.405-.648a.967.967 0 00.825-.954l.029-10.922a.969.969 0 00-.949-.968z" fill="#fff"/><path d="M269.569 164.062l-4.339 13.011 13.224-5.199-8.885-7.812z" fill="#F68480"/><path d="M283.201 125.345c-.882.037-3.298.841-6.83 7.491-4.51 8.493-11.103 34.147-11.103 34.147l19.679 7.3 2.527-5.354 4.164-41.223s-8.193-2.372-8.437-2.361z" fill="#14293F"/><path d="M309.214 121.647c-5.628.007-19.551 1.644-26.013 3.7 0 0-4.747 40.648 4.273 71.535 2.021 6.914-1.67 28.663-1.67 28.663l58.313-.766s-6.908-52.578-4.306-61.07c2.602-8.492 2.663-38.089 2.663-38.089s-.398-.062-13.1-2.249c-5.925-1.02-14.151-1.731-20.16-1.724z" fill="#1B3659"/><path d="M316.009 300.99s-1.29 14.833-3.661 18.941c-2.373 4.107.124 11.089.249 12.048.124.957 4.993 2.328 12.733 1.505 7.74-.821 7.615-2.601 6.99-5.476-.623-2.876-4.743-6.572-4.993-9.31-.249-2.739 2.373-12.596 2.373-12.596l-13.691-5.112z" fill="#F68D82"/><path d="M292.383 213.302s-40.252-2.226-49.241 3.196c-8.988 5.424 1.626 16.56 1.626 16.56s32.77 14.193 87.632 17.347c12.991.748 14.111-33.745 11.682-36.599-2.429-2.853-51.699-.504-51.699-.504z" fill="#38816A"/><path d="M326.295 334.636c7.97-.846 6.985-4.746 6.342-7.708-.403-1.852-2.689-4.038-4.051-6.106-.712.566-1.872 1.564-5.333 2.583-3.595 1.057-8.522-1.036-11.661-2.348-1.118 4.15-1.169 9.441-1.065 10.243.129.987 7.798 4.182 15.768 3.336z" fill="#375491"/><path d="M321.896 241.989c-1.608 12.123-9.57 72.474-9.57 72.474l18.475 2.281s22.72-78.77 21.555-90.818c-1.165-12.049-9.67-13.062-9.67-13.062s-16.533-2.965-20.79 29.125z" fill="#43927A"/><path d="M304.196 70.363s6.14-6.468 11.078 1.401c0 0 3.802-2.134 6.471 1.668 0 0 6.873-2.068 8.541 8.202 0 0 3.536-.666 4.002 3.537.468 4.2-1.668 7.001-1.668 7.001s1.987 1.49 1.086 5.353c-.769 3.285-3.487 3.785-3.487 3.785s-.734 5.535-3.136 7.204c-2.401 1.667-5.671.866-5.671.866s-.867 3.001-3.671 2.734c-2.802-.266-6.271-2.934-9.408-1.733-3.135 1.2-11.276-.067-11.276-.067s-9.14-4.068-6.406-13.406c0 0-4.803-4.335-.599-9.537 0 0-3.07-8.137 3.003-12.938 6.07-4.803 11.141-4.07 11.141-4.07z" fill="#1B3659"/><path d="M305.234 114.285l-1.111 8.241s-2.489 11.872.712 14.16c3.203 2.289 13.62-14.498 13.62-14.498l-1.1-20.881-12.121 12.978z" fill="#F68D82"/><path d="M317.71 108.074c-2.646 7.121-8.946 11.5-13.417 13.198l.941-6.987 12.121-12.978.355 6.767z" fill="#F35F52"/><path d="M309.953 79.37c-6.498-2.237-13.426 2.079-14.416 8.774a82.932 82.932 0 00-.894 10.573c-.175 9.626 4.808 18.992 9.182 18.992 4.371 0 16.456-6.23 16.893-19.893.269-8.436-3.944-16.1-10.765-18.446z" fill="#F68D82"/><path d="M317.495 98.895c0 2.124 1.409 3.844 3.146 3.844 1.736 0 3.145-1.72 3.145-3.844 0-2.122-1.409-3.844-3.145-3.844-1.737 0-3.146 1.722-3.146 3.844z" fill="#F68D82"/><path d="M291.012 74.582c-4.516 3.576-6.1 9.009-3.536 12.136 2.565 3.126 8.305 2.762 12.82-.814 4.517-3.576 6.1-9.01 3.536-12.138-2.564-3.126-8.305-2.76-12.82.816z" fill="#1B3659"/><path d="M343.11 130.137c-5.452-2.036-8.119 46.9-8.855 67.044-9.655.924-26.483.007-30.672-.308-1.972-.147-6.515-1.805-8.476-2.06-2.008-.262-3.829-.399-4.816-.228-.362.064-10.426 4.163-11.287 5.062-1.067 1.115-3.955 3.927-3.467 5.143.486 1.218 5.552-3.389 5.552-3.389l2.474-1.383c-3.081 2.999-8.958 6.947-8.111 8.385.826 1.403 6.126-2.605 9.905-5.335-3.241 2.916-7.267 8.132-6.339 8.946.833.731 5.412-5.309 10.306-7.049 1.814-.644 3.622 1.141 5.049 1.356 1.049.158 2.666.497 3.694.205l5.301-1.496c1.804.162 1.85 1.225 3.672 1.613 2.116.448 5.588.921 8.283 1.576 15.518 3.778 20.695 5.531 25.445 5.529 14.392-.009 15.228-78.795 2.342-83.611z" fill="#F68D82"/><path d="M353.457 176.081c1.02-20.631.871-46.062-10.739-50.401-4.581-1.712-12.656 8.581-11.205 50.82 6.198.51 15.299.921 21.944-.419z" fill="#1B3659"/><path d="M288.501 167.216h1.184l17.792 43.555-1.225-.186-17.751-43.369z" fill="#F68480"/><path d="M261.983 313.677s1.612 5.149-1.274 8.554c-2.888 3.405-14.883 6.747-16.457 8.59-1.575 1.844-1.456 3.415-1.456 3.415l33.666-.923-.366-10.128-1.551-7.278-12.562-2.23z" fill="#F68D82"/><path d="M258.613 323.929s8.65 3.485 12.829 1.423c4.179-2.063 4.053-2.637 5.262-1.867 1.209.77 1.643 10.265 1.643 10.265l-37.856 1.108c-2.635-.06-3.968-1.993-1.827-3.647 1.468-1.136 3.163-1.895 4.128-2.444 2.961-1.693 15.821-4.838 15.821-4.838z" fill="#375491"/><path d="M263.258 222.806c-2.602-5.454-8.52-12.556-18.933-8.279-9.93 4.081-12.596 14.107-9.462 24.374 3.133 10.268 23.761 70.625 24.48 78.922l16.469.109s-2.993-47.791-3.727-59.343c-.707-11.114-4.323-26.341-8.827-35.783z" fill="#43927A"/><path d="M236.521 167.216h55.055c1.457 0 2.77.879 3.321 2.228l16.952 41.327h30.352a1.536 1.536 0 110 3.07h-86.385a6.03 6.03 0 01-5.5-3.56l-17.07-38.007c-1.067-2.373.672-5.058 3.275-5.058z" fill="#F35F52"/><path d="M266.162 191.282c.373 1.856 1.992 3.098 3.62 2.772 1.626-.324 2.642-2.093 2.27-3.949-.371-1.857-1.992-3.098-3.618-2.772-1.626.324-2.644 2.093-2.272 3.949z" fill="#fff"/><path d="M420.921 108.758c-14.238 0-26.201-11.097-27.106-25.526-.939-15.007 10.444-27.938 25.429-28.881a27.627 27.627 0 011.728-.053c14.237 0 26.201 11.095 27.106 25.524.939 15.01-10.446 27.94-25.429 28.881-.579.037-1.156.055-1.728.055z" fill="#C4DAF2"/><path d="M401.732 80.992v.772H391.71v-.772h10.022zm48.513 0v.772h-10.022v-.772h10.022zm-28.956-18.504h-.77v-10.04h.77v10.04zm0 48.397h-.77v-10.039h.77v10.039zm.488-29.358a.83.83 0 11-1.66.003.83.83 0 011.66-.003z" fill="#1E4150"/><path d="M420.946 81.898a.369.369 0 01-.262-.107L405.778 66.86a.374.374 0 010-.526.372.372 0 01.524 0l14.907 14.93a.37.37 0 01-.263.633z" fill="#1E4150"/><path d="M425.739 96.617a.27.27 0 01-.135-.157l-4.818-14.578a.27.27 0 11.512-.17l4.818 14.579a.268.268 0 01-.171.34.269.269 0 01-.206-.014z" fill="#1E4150"/><path d="M473.065 139.791l2.17-3.538-3.45-1.4-2.171 3.538 3.451 1.4zm-8.793 3.156l2.427-3.941-1.948-.79a.833.833 0 11.626-1.543l2.247.912 2.169-3.538-2.082-.845a.832.832 0 11.627-1.543l2.38.964 2.52-4.051a.83.83 0 011.019-.331l.364.147a.832.832 0 01.397 1.207l-2.343 3.822 3.45 1.4 2.52-4.052a.834.834 0 011.02-.333l.397.162a.832.832 0 01.397 1.207l-2.342 3.822 1.948.79a.833.833 0 11-.626 1.543l-2.247-.91-2.136 3.551 2.082.843a.832.832 0 11-.627 1.543l-2.379-.965-2.575 4.179a.833.833 0 01-1.022.335l-.426-.173a.832.832 0 01-.395-1.208l2.426-3.939-3.451-1.398-2.573 4.177a.834.834 0 01-1.023.335l-.424-.171a.834.834 0 01-.397-1.208z" fill="#1B3659"/><path d="M251.41 35.79l2.48-5.596-3.207-5.216a.843.843 0 01.805-1.278l6.091.63 3.973-4.661a.843.843 0 011.464.37l1.283 5.985 5.661 2.337a.84.84 0 01.1 1.505l-5.297 3.07-.473 6.103a.842.842 0 01-1.402.56l-4.559-4.087-5.952 1.438a.842.842 0 01-.967-1.16z" fill="#F47374"/><path d="M431.125 35.785l1.86-4.199-2.405-3.913a.63.63 0 01.603-.957l4.57.471 2.979-3.494a.631.631 0 011.098.276l.963 4.49 4.246 1.753a.63.63 0 01.077 1.128l-3.975 2.303-.355 4.579a.63.63 0 01-1.051.42l-3.419-3.065-4.467 1.076a.63.63 0 01-.724-.868z" fill="#F3C267"/><path d="M412.653 155.736l-.295-3.478-3.034-1.728a.48.48 0 01.053-.859l3.218-1.355.706-3.418a.48.48 0 01.834-.215l2.283 2.639 3.471-.382a.478.478 0 01.462.724l-1.806 2.987 1.438 3.181a.48.48 0 01-.546.664l-3.401-.795-2.582 2.35a.48.48 0 01-.801-.315z" fill="#F47374"/><path d="M134.312 104.606l1.365-3.077-1.764-2.87a.462.462 0 01.442-.701l3.351.346 2.185-2.565a.463.463 0 01.805.204l.707 3.293 3.114 1.284a.464.464 0 01.055.829l-2.914 1.689-.261 3.356a.462.462 0 01-.77.309l-2.508-2.248-3.275.79a.464.464 0 01-.532-.639z" fill="#F3C267"/><path d="M239.935 99.035l1.364-3.077-1.762-2.869a.463.463 0 01.44-.704l3.352.346 2.185-2.563a.463.463 0 01.805.204l.706 3.293 3.114 1.284a.462.462 0 01.055.829l-2.914 1.688-.26 3.358a.462.462 0 01-.77.308l-2.509-2.25-3.274.792a.464.464 0 01-.532-.639zm-52.587-49.873l5.407-.785 2.223 8.558 8.048-.17 2.711 6.133 3.107-1.373-3.627-8.203-7.628.164-2.312-8.903-8.137 1.18.208 3.399z" fill="#41896F"/><path d="M175.752 192.516l4.092-3.62 6.555 5.939 6.635-4.556 5.631 3.644 1.845-2.85-7.531-4.872-6.289 4.317-6.818-6.179-6.158 5.447 2.038 2.73z" fill="#1B3659"/><path d="M123.922 192.527l3.07-5.007-4.884-1.98-3.07 5.007 4.884 1.98zm-12.444 4.466l3.434-5.574-2.758-1.12a1.177 1.177 0 11.886-2.184l3.181 1.289 3.07-5.007-2.946-1.194a1.18 1.18 0 01.887-2.184l3.368 1.365 3.565-5.733a1.178 1.178 0 011.445-.47l.514.208a1.18 1.18 0 01.563 1.709l-3.317 5.409 4.884 1.98 3.565-5.733a1.18 1.18 0 011.445-.471l.561.227a1.18 1.18 0 01.562 1.709l-3.316 5.411 2.758 1.118a1.18 1.18 0 01-.886 2.184l-3.181-1.289-3.023 5.025 2.945 1.194a1.18 1.18 0 11-.886 2.184l-3.368-1.365-3.642 5.913c-.302.49-.914.69-1.447.475l-.602-.244a1.178 1.178 0 01-.56-1.71l3.434-5.575-4.884-1.98-3.642 5.913c-.302.489-.913.69-1.447.473l-.601-.242a1.18 1.18 0 01-.561-1.711z" fill="#41896F"/><path d="M423.437 267.527c-.347-3.085-.763-6.237-2.195-8.989-1.741-3.347-4.798-5.76-7.471-8.419a46.729 46.729 0 01-11.142-17.75c-1.782-5.151-2.671-10.638-5.129-15.501-1.5-2.971-3.547-5.626-5.251-8.483-4.027-6.754-6.221-14.735-11.684-20.388-1.05 6.854 1.027 14.127 5.537 19.387 1.346 1.567 2.906 2.981 3.931 4.775 1.861 3.26 1.692 7.235 1.91 10.982a48.195 48.195 0 005.769 20.182c3.585 6.579 8.757 12.438 10.673 19.682 1.437 5.429 1.009 11.518 4.071 16.223.332.51.712 1.021.792 1.625.046.339-.007.683-.06 1.02-.067.436-.136.875-.206 1.312-.695 4.442-1.416 10.095 2.404 13.421 2.647 2.305 6.054 2.356 7.957-.705 1.913-3.083 1.744-7.593 1.602-11.062-.237-5.776-.856-11.57-1.508-17.312z" fill="#43927A"/><path d="M430.318 263.953c-1.486-5.143-3.793-10.043-4.949-15.27-1.12-5.07-1.129-10.312-1.132-15.506l-.013-17.074c-.002-3.541-.006-7.105-.592-10.598-1.26-7.518-5.169-14.47-5.832-22.063-.286-3.286.046-6.605-.315-9.881-.206-1.871-.686-3.782-1.553-5.444-.932-1.785-3.509-1.707-4.353.122-1.899 4.113-3.103 8.558-2.336 12.964.46 2.643 1.605 5.107 2.461 7.649 3.808 11.321 1.786 23.853 4.732 35.43.889 3.495 2.233 6.922 2.389 10.524.375 8.623-6.067 16.498-5.477 25.108.485 7.06 5.563 12.902 7.693 19.649 1.195 3.776 1.45 7.808 2.728 11.555.992 2.914 3.303 6.45 6.89 5.566 3.404-.839 2.376-3.617 2.225-6.272-.516-8.978-.031-17.689-2.566-26.459z" fill="#38816A"/><path d="M438.113 268.667c-.149-2.674-.601-5.36-.228-8.012.317-2.239 1.207-4.348 1.845-6.516 1.192-4.064 1.487-8.33 1.777-12.556l1.575-23.046c.817-11.943 1.637-23.919 3.871-35.676.621-3.265 1.316-6.803-.151-9.784-.31-.628-.92-1.294-1.586-1.085-.475.149-.709.671-.881 1.141-4.884 13.264-6.728 27.544-12.18 40.584-1.305 3.125-2.824 6.197-3.499 9.515-.812 3.986-.366 8.101-.261 12.167.15 5.829-.418 11.704-2.028 17.308-.843 2.932-1.972 5.799-2.433 8.814-.577 3.762-.092 7.593.268 11.381.692 7.282.927 14.607.703 21.918-.133 4.299 3.498 4.186 5.901 1.545 1.682-1.847 1.666-3.875 2.243-6.173 1.89-7.548 5.523-13.343 5.064-21.525z" fill="#43927A"/><path d="M415.435 280.322c-3.21-5.156-9.605-8.086-11.657-13.805-.522-1.454-.726-3.019-1.363-4.428-1.417-3.127-4.638-4.894-7.804-6.332a.669.669 0 00-.945.603 2.285 2.285 0 00.99 1.931c2.44 1.642 4.294 4.149 5.118 6.978.978 3.35.554 7.023 1.77 10.295 1.02 2.747 3.121 4.993 4.108 7.752.901 2.521.807 5.276 1.231 7.922.424 2.645 1.6 5.453 4.029 6.572 8.793 4.05 6.595-14.157 4.523-17.488z" fill="#38816A"/><path d="M452.004 278.62c-.137 2.492.244 5.105-.732 7.402-.625 1.471-1.746 2.657-2.67 3.96-3.235 4.578-4.41 11.061-9.382 13.636-.328.171-.694.324-1.058.255-.51-.095-.843-.586-1.049-1.063-1.218-2.839.15-6.037.96-9.02.142-.522.26-1.103.013-1.583-.275-.528-.9-.758-1.326-1.173-.848-.824-.768-2.191-.601-3.367a76.418 76.418 0 011.775-8.705c.43-1.623.927-3.261 1.865-4.655 1.029-1.536 2.527-2.683 3.927-3.888a46.529 46.529 0 0013.592-20.052c.574-1.675 1.087-3.442 2.275-4.752 1.187-1.311 3.303-1.984 4.748-.969 1.029.725-3.184 7.501-3.676 8.312-1.404 2.323-1.422 4.343-2.216 6.92-1.944 6.319-6.074 11.974-6.445 18.742z" fill="#43927A"/><path d="M447.102 281.501c.92-2.377 1.848-4.784 2.15-7.316.337-2.816-.109-5.693.372-8.487.617-3.591 2.713-6.75 3.749-10.243.75-2.522.934-5.172 1.384-7.766 1.285-7.414 4.772-14.66 3.772-22.118-.218-1.622-.95-3.513-2.562-3.789-1.458-.252-2.785 1.083-3.164 2.515-.379 1.432-.097 2.943.007 4.421a18.228 18.228 0 01-3.27 11.704c-2.29 3.241-5.615 5.68-7.676 9.071-2.529 4.16-2.874 9.238-4.163 13.934-2.567 9.336-9.002 17.483-10.176 27.096-.466 3.826.432 8.476 3.964 10.003 10.214 4.421 13.299-13.042 15.613-19.025z" fill="#38816A"/><path d="M429.244 293.353h-23.443a2.484 2.484 0 00-2.414 3.061l8.545 36.02a2.482 2.482 0 002.416 1.911h28.16c1.149 0 2.149-.79 2.415-1.911l8.546-36.02a2.485 2.485 0 00-2.416-3.061h-21.809z" fill="#F35F52"/><path d="M194.039 257.077H80.086v-5.882h113.953v5.882zm-37.39 33.391H82.146v-5.147h74.503v5.147z" fill="#1E4150"/><path d="M182.857 334.372v-80.236h-4.807v80.236h4.807zm-67.98 0v-80.236h-4.807v80.236h4.807zm28.984 0l25.894-79.546-4.245-1.38-26.343 80.926h4.694zm-72.84 0l22.148-79.721-4.301-1.194-22.479 80.915h4.632zm351.628-225.669c-14.983.943-27.893-10.461-28.834-25.469-.939-15.01 10.444-27.94 25.429-28.883 14.983-.941 27.893 10.463 28.834 25.47.94 15.01-10.446 27.941-25.429 28.882zm-1.702-58.977c-17.535 0-31.749 14.238-31.749 31.801s14.214 31.801 31.749 31.801c17.534 0 31.748-14.238 31.748-31.801s-14.214-31.8-31.748-31.8z" fill="#1E4150"/><path d="M559.659 333.881H36.252v3.549h523.407v-3.549z" fill="#14293F"/><path d="M299.863 107.027l8.464-.138s-.142 3.216-3.863 3.383c-4.536.206-4.601-3.245-4.601-3.245z" fill="#fff"/></g><defs><clipPath id="clip0"><path fill="#fff" d="M0 0h573v364H0z"/></clipPath></defs></svg>