<svg width="183" height="183" fill="none" xmlns="http://www.w3.org/2000/svg"><path d="M156.406 133.582l-.353-12.569a.921.921 0 01-.498-.806.935.935 0 011.177-.908l17.34-17.73a.922.922 0 01.083-.923l-25.243-33.19c.26-.134.521-.268.783-.407l25.253 33.199a.935.935 0 01.922.918.94.94 0 01-.933.943c-.054 0-.106-.008-.159-.015l-17.396 17.788a.907.907 0 01-.457 1.14l.353 12.55.023.801.025.872a.436.436 0 01-.424.448h-.007a.436.436 0 01-.44-.423l-.026-.89-.023-.798z" fill="#323B6E"/><path d="M157.301 134.373c4.165.001 7.462.555 7.47 1.278.009.753-3.562 1.404-7.975 1.454-4.414.048-7.998-.523-8.006-1.277-.008-.734 3.384-1.371 7.639-1.448l.026.89a.436.436 0 00.44.423h.007a.436.436 0 00.424-.448l-.025-.872z" fill="#323B6E"/><path d="M139.472 66.795c2.133 3.301 2.594 6.8 1.027 7.811-1.565 1.012-4.566-.845-6.699-4.148s-2.593-6.8-1.027-7.812c1.565-1.012 4.566.846 6.699 4.149z" fill="#FF5C6C"/><path d="M126.74 133.488l-.825 4.031a1.216 1.216 0 01-1.169.969l-56.722.519a.678.678 0 01-.66-.878c.16-.518.637-.875 1.182-.882l20.153-.224 6.558-30.935a2.465 2.465 0 012.355-1.952l33.537-.753c.91-.02 1.603.81 1.418 1.702l-5.827 28.403z" fill="#323B6E"/><path d="M83.327 27.266c.146 1.062-.1 2.225-.867 2.971-.237.232-.53.407-.843.52-.702.25-1.513.184-2.069-.304l-.004-.01c.435-.219.822-.55 1.092-.95.683-1.012.752-2.327.545-3.529a5.562 5.562 0 00-.29-1.071c.619-.112 1.269.172 1.694.636.431.472.654 1.104.742 1.737zm-8.487 2.767c.418-.103.843-.23 1.233-.414l.013.028a1.838 1.838 0 01-.987 1.519h-.005a3.957 3.957 0 00-.254-1.133z" fill="#FEA77C"/><path d="M78.54 27.19c.073.926.008 1.913-.508 2.687a2.188 2.188 0 01-.603.603c-.527.357-1.196.49-1.76.222.244-.298.396-.67.417-1.055l-.013-.027c.311-.147.6-.335.848-.574.555-.545.827-1.449.437-2.12-.125-.217-.325-.404-.57-.453-.22-.045-.444.024-.657.092l-.76.244c-.206-.759-.434-1.521-.865-2.174-.3-.455-.72-.853-1.207-1.085v-.002l.012-.023c.771-.66 1.755-1.263 2.746-1.038.654.148 1.144.615 1.5 1.196.236.38.413.807.543 1.224.23.741.378 1.508.44 2.283z" fill="#FEA77C"/><path d="M80.891 24.892c.135.344.226.71.29 1.072.207 1.202.138 2.517-.545 3.53-.27.399-.657.73-1.092.949-.663.334-1.439.407-2.092.068l-.023-.031c.239-.16.447-.367.603-.604.516-.773.581-1.76.507-2.686a10.46 10.46 0 00-.44-2.283 5.42 5.42 0 00-.541-1.224l.118-.074c.611-.623 1.712-.512 2.38.051.385.325.652.759.835 1.232z" fill="#FEA77C"/><path d="M75.37 26.809l.761-.244c.213-.068.438-.137.657-.092.245.05.445.236.57.453.39.671.118 1.575-.437 2.12-.248.24-.537.427-.848.573a6.62 6.62 0 01-1.233.414c.14.363.225.746.254 1.134l.005-.001a1.79 1.79 0 00.57-.464c.564.268 1.233.135 1.76-.222l.022.03c.654.34 1.43.267 2.093-.067l.004.01c.556.488 1.367.555 2.07.304l.008.025a3.923 3.923 0 01-.141 1.948c-.294.874-.89 1.627-1.144 2.514-.167.584-.174 1.209-.037 1.887-2.986.326-6.03.118-8.944-.612l.002-.014c-.303-1.605-1.12-3.058-1.793-4.549-.67-1.49-1.209-3.133-.904-4.738.218-1.146.863-2.19 1.73-2.97.566-.514 1.278-.934 2.042-.914.301.009.592.086.862.215v.001c.487.232.907.63 1.207 1.085.431.653.66 1.415.865 2.174zm-57.628 3.827c-.215.41-.374.85-.474 1.3a1.632 1.632 0 01-1.136-.529l-.025-.013c.081-.147.151-.301.21-.458.488-.04.975-.186 1.425-.3zm-6.532-4.63c.122.05.238.116.343.196.329.255.54.63.728 1 .467.926.84 1.899 1.115 2.9.203.742.327 1.61-.144 2.217l-.017.02c-.477.59-1.331.68-2.095.69a.864.864 0 00.08-.166c.108-.288.087-.606.047-.91a7.706 7.706 0 00-1.572-3.743c-.189-.24-.408-.48-.679-.605l.03-.06c.073-.632.293-1.224.909-1.515a1.58 1.58 0 011.255-.024z" fill="#FEA77C"/><path d="M65.052 70.733a.746.746 0 11.017 1.492.746.746 0 01-.017-1.492z" fill="#20140F"/><path d="M17.39 24.908c.963.895 1.556 1.847 1.981 3.09-.223 0-.45.023-.673.044l-2.529.258a6.4 6.4 0 00-.333.04 7.157 7.157 0 00-.954-2.114 4.607 4.607 0 00-.507-.645l.056-.053a2.524 2.524 0 011.708-1.06 1.4 1.4 0 01.666.044c.224.078.41.235.585.396z" fill="#FEA77C"/><path d="M56.319 65.828c.195.15.315.423.214.645-.07.154-.229.25-.391.293-.164.042-.334.038-.502.045-.456.018-.922.12-1.298.38-.198.136-.367.311-.575.427-.21.117-.486.16-.682.02-.188-.132-.24-.402-.175-.625.065-.222.226-.403.4-.557a3.27 3.27 0 012.568-.786c-.001-.04.248.01.441.158z" fill="#323B6E"/><path d="M15.476 30.876c.277.072.56.084.841.06a3.506 3.506 0 01-.21.458c-.261.474-.632.884-1.117 1.11-.549.26-1.253.222-1.725-.14l-.03-.024.018-.021c.47-.607.346-1.475.143-2.216a15.615 15.615 0 00-1.115-2.9c-.188-.372-.4-.746-.728-1.001a1.521 1.521 0 00-.343-.196c.27-.413.568-.84 1.015-1.043.486-.224 1.075-.134 1.54.132.228.13.429.297.61.487a4.6 4.6 0 01.507.644 7.2 7.2 0 01.954 2.114c-.567.085-1.144.265-1.394.759-.354.7.274 1.575 1.034 1.777z" fill="#FEA77C"/><path d="M11.14 33.03c.764-.01 1.618-.1 2.095-.69l.03.024c.472.362 1.176.4 1.725.14.485-.226.856-.636 1.117-1.11l.025.013c.286.319.708.513 1.136.53.1-.452.26-.891.474-1.301-.45.114-.937.26-1.425.3a2.485 2.485 0 01-.841-.06c-.76-.203-1.388-1.077-1.034-1.777.25-.494.827-.674 1.394-.759.112-.016.224-.03.333-.04l2.53-.258c.223-.021.449-.045.672-.043.224 0 .446.024.66.093.858.28 1.328 1.243 1.37 2.145.043.901-.24 1.782-.421 2.666a11.783 11.783 0 00.407 6.16c-3.378.995-6.459 1.748-9.946 1.739a5.96 5.96 0 00-.068-.306v-.003a6.984 6.984 0 00-1.123-2.434c-.489-.676-1.096-1.257-1.608-1.916-1.558-2-2.166-4.708-1.614-7.184.072-.427.37-.87.782-1.161.288-.206.653-.337 1-.263.072.017.141.04.206.07.27.125.49.365.679.605a7.707 7.707 0 011.572 3.743c.04.304.06.622-.047.91a.859.859 0 01-.08.167z" fill="#FEA77C"/><path d="M63.876 76.912c.008.609-.345 1.169-.782 1.592a4.352 4.352 0 01-2.625 1.194 4.634 4.634 0 01-2.81-.67c-.373-.23-.722-.52-.945-.898-.222-.379-.305-.855-.144-1.263.283-.714 1.173-.976 1.942-.947.767.029 1.539.25 2.293.105.708-.137 1.42-.588 2.094-.339.457.17.968.619.977 1.226z" fill="#fff"/><path d="M39.623 120.763c-2.326-7.18-6.556-13.447-10.851-19.708l-.03.02c-.947.917-1.397 1.72-1.85 2.96-.904 2.48-.83 5.211-.466 7.826.738 5.307 2.599 10.383 4.449 15.412.747 2.027 1.491 4.056 2.238 6.085l7.808.011h2.576l-3.874-12.606z" fill="#323B6E"/><path d="M55.518 70.84a.746.746 0 11.015 1.491.746.746 0 01-.015-1.492z" fill="#20140F"/><path d="M66.829 66.858c.07.222.023.492-.162.63-.193.142-.469.106-.681-.005-.213-.112-.384-.285-.585-.415-.382-.252-.85-.343-1.306-.35-.168-.004-.34.003-.503-.035-.163-.038-.324-.131-.398-.284-.105-.22.009-.495.2-.649.19-.153.438-.21.437-.168a3.268 3.268 0 012.586.729c.177.15.342.328.412.547zm-.42-7.968c-1.746 1.079-4.002 1.502-6.19 1.58-1.36.049-2.72-.02-4.076-.082-.617-.027-1.29-.128-1.903-.079-.503.04-4.116.616-6.45 4.307-.08.126-.164.246-.243.373-1.49 2.408-2.124 5.437-1.374 8.166.031.114-.016.24-.096.329a.73.73 0 01-.306.179 1.095 1.095 0 01-.696.03c-.226-.073-.423-.258-.47-.49-.416-.643-1.078-1.121-1.808-1.238a2.318 2.318 0 00-.795.01l-.229-.474c-1.497-3.627-2.203-7.795-.394-11.144 1.415-2.62 4.137-4.283 6.92-5.344 2.782-1.058 5.736-1.636 8.49-2.768 1.747-1.149 3.748-2.193 5.916-2.33a7.703 7.703 0 013.93.804c.547.276 1.067.62 1.47 1.08.815.929 1.08 2.267.837 3.478-.241 1.21-.95 2.296-1.852 3.138a6.935 6.935 0 01-.681.474z" fill="#323B6E"/><path d="M56.271 71.578a.746.746 0 10-1.492.015.746.746 0 001.492-.015zm.262-5.105c.101-.221-.02-.495-.214-.645-.194-.148-.442-.199-.44-.157a3.27 3.27 0 00-2.57.785c-.173.154-.334.335-.399.557-.065.223-.012.493.175.626.196.139.472.096.682-.02.208-.117.377-.292.575-.429.376-.26.842-.361 1.298-.379.168-.007.338-.003.502-.045.162-.042.321-.14.391-.293zm6.561 12.031c.437-.423.79-.983.782-1.592-.008-.607-.52-1.057-.977-1.226-.675-.249-1.386.202-2.094.339-.754.144-1.526-.076-2.293-.105-.769-.029-1.659.233-1.942.947-.161.408-.078.884.144 1.263.223.378.572.667.945.898a4.634 4.634 0 002.81.67 4.352 4.352 0 002.625-1.194zm2.712-7.032a.746.746 0 10-1.492.015.746.746 0 001.492-.015zm.861-3.984c.185-.138.232-.408.162-.63-.07-.22-.235-.397-.412-.547a3.268 3.268 0 00-2.586-.73c.001-.04-.247.016-.437.17-.191.153-.305.428-.2.648.074.153.235.246.398.284.163.038.335.03.503.034.457.008.924.1 1.306.35.2.132.372.304.585.416.212.11.488.147.681.005zM44.32 77.605c-1.024.43-2.287.305-3.176-.373-1.092-.833-1.523-2.427-1.003-3.696.14-.347.347-.669.616-.93.34-.33.78-.547 1.246-.631.261-.049.532-.053.794-.01.73.117 1.393.596 1.81 1.238.046.232.243.417.469.49.224.073.473.049.696-.03a.73.73 0 00.306-.18c.08-.087.127-.213.096-.328-.75-2.73-.116-5.758 1.374-8.166.079-.126.163-.247.243-.373 2.334-3.69 5.947-4.266 6.45-4.306.612-.05 1.285.05 1.903.078 1.357.063 2.715.131 4.075.083 2.19-.08 4.445-.502 6.191-1.581.489 1.783.98 3.565 1.468 5.349 1.88 6.85 2.27 12.174 1.116 15.825-.667 2.104-1.846 3.653-3.55 4.618-1.889 1.07-4.012 1.686-6.173 1.852.122.527.274 1.049.454 1.56.19.535.42 1.075.826 1.472a2.3 2.3 0 00.137.12c-1.39 1.744-3.796 2.502-6.011 2.226-2.242-.282-4.285-1.5-5.913-3.068l-.135-.032c.079-.46-.05-.939-.19-1.39-1.03-3.374-2.511-6.592-3.988-9.796l-.13-.021z" fill="#FEA77C"/><path d="M136.636 67.041a3.214 3.214 0 106.429 0 3.214 3.214 0 00-6.429 0z" fill="#fff"/><path d="M143.646 60.956a.507.507 0 00.222-.685.507.507 0 00-.682-.222l-1.814.921a.508.508 0 00.459.907l1.815-.922zm1.441 1.8a.508.508 0 00-.461-.907l-1.815.92a.509.509 0 00.462.908l1.814-.922zm1.297 1.953a.51.51 0 00-.462-.907l-1.812.922a.507.507 0 10.46.905l1.814-.92zm.902 2.2a.51.51 0 00-.461-.906l-1.815.921a.508.508 0 00.462.907l1.814-.922zm1.626.548c-1.113.569-2.228 1.116-3.43 1.813-.674.39-1.356.788-1.904 1.34-1.193 1.203-1.673 3.058-3.073 4.005l-.006-.009c1.567-1.01 1.106-4.51-1.027-7.811-2.133-3.303-5.134-5.16-6.699-4.149.979-.903 2.383-.928 3.701-1.13 3.304-.502 6.132-2.54 8.981-4.29.7-.428 1.457-.857 2.277-.834.875.023 1.65.56 2.294 1.151 1.263 1.16 3.036 3.757 3.068 6.664-.062.708-.453 1.107-1.172 1.562-.765.484-1.5.896-2.227 1.28-.262.139-.523.273-.783.408z" fill="#323B6E"/><path d="M147.509 66.227a.509.509 0 01-.223.682l-1.814.922a.51.51 0 01-.462-.907l1.815-.921a.508.508 0 01.684.224zm-.902-2.203a.51.51 0 01-.224.685l-1.813.92a.507.507 0 11-.46-.906l1.812-.92a.51.51 0 01.685.221zm-1.298-1.951a.508.508 0 01-.222.682l-1.814.922a.51.51 0 01-.462-.907l1.815-.922a.508.508 0 01.683.225zm-1.441-1.802a.507.507 0 01-.222.684l-1.815.922a.507.507 0 11-.459-.907l1.814-.921a.507.507 0 01.682.222z" fill="#CC2C3D"/><path d="M80.039 112.207c-.188-.783-.376-1.569-.562-2.355.626-11.234 6.293-29.646 6.157-41.122-.136-11.477-1.954-20.002-5.181-31.016a5.789 5.789 0 01-.149-.583 25.492 25.492 0 01-9.008-.628c1.185 9.56 1.075 19.19.315 28.735-.4 5.015-.997 10.087-2.523 14.856a34.69 34.69 0 01-1.465 3.82c-1.165 2.563-2.872 5.134-5.517 6.07-.473.181-1.02.021-1.42-.297-1.389 1.743-3.795 2.501-6.01 2.225-2.242-.282-4.285-1.5-5.913-3.068l-.135-.032c-.005.035-.013.07-.021.104-.12.493-.597.936-1.094.837l-.052.016c-6.074-3.452-8.544-7.314-11.45-12.11-2.905-4.796-4.992-10.037-6.934-15.298a335.976 335.976 0 01-7.648-23.31l-.041.012c-3.379.995-6.46 1.748-9.947 1.739a5.987 5.987 0 00-.068-.306c.075.678 1.526 32.876 8.899 47.074 2.44 4.7 5.487 9.093 8.5 13.485 4.294 6.261 8.525 12.528 10.85 19.708l.001.015.005.002 3.869 12.589 7.563.014 34.072.047v-.049l-5.093-21.174z" fill="#86B7FF"/><path d="M109.299 119.877c-.192 1.783 1.099 3.229 2.883 3.229 1.783 0 3.383-1.446 3.575-3.229.191-1.784-1.1-3.23-2.884-3.23-1.783 0-3.383 1.446-3.574 3.23z" fill="#fff"/><path d="M59.055 87.442v-.028h-.084v.028h.084zm.31-.226h-.028v.084h.029v-.084zm-2.173-.226v.028h.085v-.028h-.085zm-4.375.057h.029v-.085h-.029v.085zm4.093-.255h-.028v.085h.028v-.085zm1.13-.056v.028h.084v-.028h-.085zm-5.392-.113h.028v-.085h-.028v.085zm.282-.339h-.028v.085h.028v-.085zm-.593-.423h-.028v.085h.028v-.085zm-.818-.536v-.029h-.085v.029h.085zm8.27 3.923h-.028v.084h.028v-.084zm-1.637 0h.028v-.085h-.028v.085zm-1.637-.564v.028h.084v-.028h-.084zm.339-.085v.028h.084v-.028h-.084zm-1.863 0v.028h.084v-.028h-.084zm.225-.452h-.028v.085h.028v-.085zm1.722-1.503v.042h.17v-.042h-.17zm-2.646.741h-.042v.17h.042v-.17zm.262.578l-.01-.073-.137.033.006.04h.14zm4.755 1.603v-.042h-.17v.042h.17zm-3.197-.805l.198.148.106-.227-.115-.11-.189.19zm-2.545-1.535c.315.165.373.253.305.388l-.145.053c.009.09-.066.207.085.233.226-.196.147-.44.164-.674h-.409zm4.92 2.28c.128.017.198-.067.233-.186-.021-.111-.218-.032-.18-.192.001-.002-.097-.029-.171-.052.046.168.08.294.174.486l-.337-.136.02.166c.093-.009.166-.015.26-.087zm-3.702-.694c.058.065.075.096.087.095.04-.007.08-.024.119-.037-.051-.014-.102-.029.065.037l-.073.004.033.165.054-.007c-.004-.054-.009-.108-.285-.257zm4.109.343l-.017.016.059.069.027-.027c-.023-.019-.046-.039-.085-.04l.017-.017-.06-.07a.743.743 0 01-.026.027c.023.02.046.04.085.042zm.326.852c-.126-.015-.275.058-.38-.078-.092.132-.225.07-.351.077l-.111-.165.084-.085c.029 0 .057 0 .188.05.045-.017.028-.05.016-.047-.04.005-.08.024-.119.036.051.015.102.03.103.01-.112-.072-.121-.096-.13-.12a4.826 4.826 0 01-.058.071l-.084.085h-.198c-.056-.11-.097-.225-.166-.316-.094-.124-.082-.222.022-.322l-.223-.292-.044.421h-.238c-.028-.027-.056-.055-.093-.077.02-.09.044-.17.07-.254h-.453l-.115.127.041.047.234-.105c.08.07.148.132.223.185.036.022.065.05.093.077.055.187.224.014.316.118.023.08.05.177.067.232l-.1.222-.234-.32a6.818 6.818 0 00-.107.094l-.249-.334c-.07.106 0 .336-.266.326l-.03-.215c-.11-.041-.22-.081-.328-.123l.082-.298c-.18-.143-.333.07-.494.038-.15-.029-.29-.106-.435-.162v-.278l-.116.094-.308-.156v-.096c.163-.041.33-.071.496-.102a31.44 31.44 0 01-.236-.177l.13-.18-.39.165v.294a.207.207 0 01-.07.04l.07.056-.083.3.049-.048.076.22.084-.248c.106.04.202.078.298.116l-.233.19.063.232c-.08-.009-.175.007-.236-.032-.15-.096-.275-.071-.415.02-.105-.07-.11-.257-.285-.283l.09-.467c.028-.027.056-.056.057-.084.125-.038.226-.06.325-.089.013-.003.017-.036.024-.053l-.217-.103c-.04.06-.082.125-.132.245 0 .028-.03.057-.057.084h-.17v-.231h-.54l-.277-.344-.09.083-.423-.282.29-.102c-.016-.038-.047-.087-.058-.141-.011-.054-.002-.112-.058-.245.014-.006.054.036.12.105l.015-.198c-.067.005-.103.008-.135.093.01.104-.036.13-.109.173-.228-.254-.582-.236-.907-.324l-.067.143h-.117l-.015-.198.403-.196.065.052.063-.118c-.183-.074-.333-.253-.544-.007l-.182-.24c.138-.095.38-.018.357-.292-.148-.085-.324.231-.466-.035l-.05.162-.248.052.04.044-.212.214.054.054h-.38l.064-.25-.22.064c-.027-.05-.069-.122-.16-.283l.318.13a19.1 19.1 0 00.206-.103c.027.064.05.12.08.185.048-.117.096-.23.15-.356l.113.105.124-.126-.453-.163.14-.216c.114.054.16.215.321.172.105.084.105.084.245.005-.095 0-.173 0-.245-.005l-.34-.392-.19.29h-.303c-.01-.067-.024-.144-.04-.238l-.117.069c-.17-.1-.106-.267-.117-.412l.383-.07.093.06c.01-.023.036-.052.03-.07-.018-.048-.048-.092-.074-.138.017-.009.046-.04.061-.034.364.144.725.293 1.089.435.17.067.345.12.517.181.16.058.317.118.489.152.32.064.633.17.945.267.216.068.426.147.657.151.246.004.471.142.723.128.05-.002.101.035.152.037.19.008.372.01.561.077.171.06.368-.003.559.082.138.062.326.012.527.012l-.112.139c.05.014.093.026.143.038l.06-.169h.997l-.087.124.223.08.029-.12-.087-.043c.049-.07.21-.07.59-.006-.056.031-.114.06-.169.093-.006.004 0 .027 0 .08l.234.06.052.151.097-.086c.378 1.335.64 1.952 1.145 2.537l-.089.17a11.309 11.309 0 01-.222-.105c-.014.06-.037.102-.028.135.01.037.049.064.077.098-.026.027-.05.065-.083.084-.09.051-.184.095-.282.146l-.279-.546-.161.089.24.259-.101.145.08.08-.25.174-.02.194h-.208c-.01-.022-.036-.049-.03-.068.022-.089.053-.175.077-.264l.012.012.07-.059a.669.669 0 00-.027-.026.448.448 0 00-.055.073zM13.075 32.768h.254c.001.115.091.07.15.086.058.016.11.046.182.076v-.395c.084.024.154.037.216.066.076.034.014.2.178.174.063-.01.14.062.22.1l-.195.205.076.32-.431-.25c-.145.018-.298.038-.453.06-.195.123-.101.27-.02.425l-.29.207.089.137-.199.491-.184-.102.232-.456-.18-.192.21-.158-.087-.152.12-.332-.057-.226c.064-.013.162.042.169-.084zm66.303-1.355l-.085.265-.436-.343.112-.183c-.12-.155-.29-.295-.353-.501l.241-.062c.003.032-.001.087.015.135.05.153.136.227.269.171.096-.041.153-.003.23.002.085.005.174-.049.261-.077l.055.118-.071.279.355.11.077.132-.09.107h.452c.127.098.203.19.12.363l-.373-.087-.034.24h-.14v-.319l-.352-.35h-.253a2.28 2.28 0 01-.078-.08c.007-.086.007-.164.007-.24l.245-.08-.3-.03-.212.223.26.126c.022.024.05.052.078.08zm1.112-.215c.144-.052.241-.087.355-.13l.177.274.085-.18.15.012-.08.204.163.11c-.067.146-.251.114-.577-.063l-.144.144-.234-.111.105-.26zm-3.195.12c-.114-.004-.194-.004-.274-.004-.052-.178.126-.204.175-.305l.34.107-.113.226.094.132-.257.16.12.32-.37-.146v-.256c.09-.065.18-.13.285-.234-.037.008-.032.013-.026.019.023-.02.046-.04.069-.058l-.027-.028c-.02.024-.04.047-.016.067zm-61.157.519h.31c.011.314.076.632-.107.937-.138-.154.041-.257.042-.404-.078-.013-.155-.027-.245-.041v-.492z" fill="#F57D77"/><path d="M12.906 32.852h-.143l-.045.24h-.324l.08-.115-.084-.093.254-.167-.085-.084c.056-.014.1-.016.133-.037.043-.027.077-.069.117-.106l.146.098.12-.097v.277c-.064.013-.162-.042-.17.084zm.582 1.136a6.483 6.483 0 00-.067-.08l.061-.073-.09-.487.37.317-.174.058.091.132-.082.154.17.068-.106.196h-.379l.206-.285zm67.724-2.137l.069-.198c.047.018.096.022.117.048.065.083.12.175.21.311l-.346-.1c-.103.053-.23.12-.408.21l.257.158-.174.13c-.26-.097.002-.408-.246-.559h.521zm-3.274-.946c.07-.288.139-.316.424-.17-.055.044-.11.088-.171.134l.341.155-.014.25-.24-.116c-.044-.177-.23-.164-.34-.253zm-62.315 1.778h.375l.277.288-.107.15-.46-.255-.085-.183zm-.31.115l.055.22c-.058.042.104.12.079.206l-.322.214-.096-.127.065-.065-.075-.147.293-.3zm64.075-.81l-.497.166-.095-.095v-.23l.315.053.229-.184.048.29zm.487-1.13l.231-.165.15.635c-.097 0-.15.005-.201-.002-.03-.004-.076-.02-.081-.04-.035-.128-.061-.257-.1-.428zm-65.107 1.656l.057.207-.45.35-.03-.303.085-.085.133-.17h.205zm63.466-1.354l.225.36c-.023.052-.052.11-.076.17-.02.046-.034.095-.052.148l-.154-.02.11-.279-.172-.073v-.297l.119-.01zM54.59 88.676l-.474.233-.119-.1c-.028-.076.072-.13.291-.156l.05-.26c.206.022.151.21.253.283zm2.055.656c-.053.097-.08.14-.101.184-.017.035-.026.073-.043.122a44.72 44.72 0 01-.264.13 13.036 13.036 0 01-.1-.093l.337-.343h.171zM12.178 33.68c-.219.09-.402-.205-.593.023l-.157-.213c.173-.069.303-.074.421.026l.157-.103.172.267zm68.457-1.071l-.284.096-.11-.359.275-.123.119.386zm-66.526 1.059c.211.1.355.199.313.444h-.175l-.245-.228.107-.216zm38.339 53.934l.02-.315c.219.032.263.232.418.298l-.149.149c-.086-.04-.178-.08-.289-.132zM81.63 31.16c-.248 0-.2-.247-.332-.345l.129-.14c.102-.047.223.241.203.485zm-67.172 1.915c.08.044.135.076.191.108l.175-.174c.03.056.058.114.104.202l-.104.15-.396-.117.03-.17zm-2.471.008l-.29-.19.603-.121c-.01.056-.001.133-.034.16-.069.057-.16.09-.279.15zm67.91-.464a96.403 96.403 0 01-.203-.156l.129-.365c.248.115.1.32.16.472l-.086.049zm-.255-1.797l-.173-.314c.175-.097.282.064.429.102-.045.147-.115.231-.255.212zM51.843 86.637v.288c-.127.017-.233.206-.447.06l.447-.348zm26.095-55.732l-.084.254c-.227-.062-.227-.062-.24-.31.127-.094.22.015.324.056zM50.807 85.96h.246c-.047.15.304.111.183.326-.275-.106-.275-.106-.43-.326zm2.995 2.582l-.42-.088.016-.152.184.066.347-.073-.127.247zm-3.182-3.275l-.153-.2.42-.14.047.093-.314.247zm31.048-53.692h-.24c-.049-.17-.008-.285.212-.347l.028.347zm-67.237 1.999v-.127l.23.06.171-.102.024.259c-.04.016-.069.04-.088.033-.114-.038-.227-.083-.337-.123zM78.447 32.2a28.652 28.652 0 01-.36-.11c.227-.218.228-.222.442-.044-.027.03-.056.057-.081.088-.007.009-.001.027-.001.067zm-66.303 1.5h.147v.576a26.32 26.32 0 01-.093.02c-.17-.081.12-.217-.047-.294.153-.104.042-.203-.007-.303zm40.958 54.588l-.281.033c-.023-.061-.038-.111-.06-.158-.012-.024-.036-.04-.054-.06l.129-.13.266.315z" fill="#F57D77"/><path d="M78.428 32.095l.317.238-.264.25-.053-.488zm1.481-.118c-.206.064-.314.01-.369-.16.21-.074.21-.074.369.16zm-69.3 1.464l.314.254-.276.242-.038-.496zm5.399-1.021c-.1-.06-.199-.117-.3-.175l.132-.267.217.398-.05.043zm63.42.418c.051-.13.09-.234.162-.416l.161.416h-.323zm-1.561-1.649c.06.033.121.067.206.112-.072.08-.11.136-.16.176-.026.02-.073.014-.111.02-.07-.134-.052-.242.065-.308zm-62.609 1.207l.117.237c-.148.108-.246.053-.35-.088l.233-.15zm62.822.205l-.29.216-.023-.258c.05-.052.089-.09.111-.112l.203.154zm3.018.079l.291-.216.023.26-.111.11-.203-.154zm-3.07.659l.322-.262v.262h-.322zm3.224-2.55c-.048.02-.097.037-.146.057l.033.045h-.475l-.006-.04.56-.122.034.06z" fill="#F57D77"/><path d="M15.446 32.09c.007.145.018.292-.17.34l-.088-.163c.038-.132.122-.193.258-.177zm63.932-1.586v.214l-.24.022v-.236h.24zM8.631 33.419l.209-.135.115.308c-.181-.017-.181-.017-.324-.173zm71.49-.26v.32l-.201-.119.201-.201zM54.302 89.163v.238h-.247c.012-.182.103-.245.247-.238zM16.123 31.837h-.254v-.17l.23-.117.024.287zm-2.794.935c0-.074.004-.145-.001-.215-.004-.043-.11-.047-.046-.13.207.014.23.145.211.33l-.164.015zM50.406 86.15v.29l-.232.017c-.032-.172.073-.216.232-.307zm27.563-54.159h-.31l.15-.279.16.28zM55.598 89.288l.262.17-.262.162v-.332zm1.722.955l.27-.202.022.343-.291-.141zm.083.043l-.27.201-.022-.342c.112.054.181.088.292.14zM12.206 33.413l.24-.191.05.35a48.75 48.75 0 00-.29-.159zm37.979 52.408l.25.16-.25.178v-.338zM76.83 30.835v.14h-.24v-.14h.24zM53.559 89.393v-.297l.258.104-.258.193zm.778-.225l-.105-.135.126-.126.176.212-.197.049zm22.726-56.584l.126.225c-.16.098-.196-.023-.262-.088l.136-.137zM53.706 88.901h-.14v-.244c.237-.008.133.14.14.244zm-4.226-3.814v.248l-.147.029c-.006-.084-.012-.16-.02-.245.054-.011.092-.019.167-.032zm29.898-53.081h.13l.127.259c-.19-.017-.265-.096-.257-.26zM50.94 87.146l-.154.173a72.41 72.41 0 00-.175-.32l.329.147zM9.68 34.138v.139h-.245c-.007-.236.14-.132.245-.14zm67.143-1.378h-.14v-.24h.14v.24zm-60.544-2.609a186.96 186.96 0 01-.177-.148l.325-.174-.148.322zM58.11 90.248l.154-.172.175.322-.329-.15zm-8.355-5.581l.177.148-.326.174.149-.322zm.288 1.272h-.31l.052-.213.258.213zM16.044 33.29c-.01.064-.02.11-.034.195a137.46 137.46 0 00-.27-.196h.304zm34.161 51.977c.049.049.08.078.108.109.006.006.007.02.008.02l-.112.129-.128-.128.124-.13zm28.859-52.729a83.43 83.43 0 00-.192-.266l.264-.017-.072.283zm-20.307 58.35l-.196.266v-.304l.196.038zm1.053-.559l-.27.23-.092-.184.363-.046zm-1.92-.103l.19.241-.19.074v-.315zm-4.548-1.811l-.27.195a59.6 59.6 0 01-.034-.195h.304zm-1.869-.96l.274-.194.03.194h-.304zM75.95 31.072l.117.127-.116.132-.128-.128.126-.131zm-24.855 55.68v.19c-.079.006-.16.012-.241.02a3.316 3.316 0 00-.017-.057l.258-.153zM15.08 34.012l.253-.187c-.065.177-.065.177-.254.187zm-.985-.31c-.055-.003-.105-.008-.161-.012l-.012-.144.159-.018.014.174zM52.96 87.646h.15l.024.125c-.112.065-.182.064-.175-.125zm-.424.17h.151l.024.125c-.112.065-.182.064-.175-.125zm26.572-54.791c-.09-.006-.163-.01-.274-.02l.18-.156.094.176zm2.516-.825l-.187.256c.008-.185.008-.185.187-.256zM50.332 85.091h-.15l-.025-.124c.113-.066.183-.064.175.124zM15.446 32.05l.232-.122.035.137-.264.035-.003-.05zm1.002 1.509l-.152-.153.152-.19v.343zm-2.103-.791c-.12-.023-.114-.1-.045-.157.044-.038.127-.027.13.072l-.085.085zm62.967-1.903l-.09-.184c.107-.022.107-.022.09.184zm3.343 2.677v-.139l.164.108-.164.031zm-4.106-1.985l-.179-.111c.206-.016.206-.016.179.111zm-65.461 1.44c.04.066.073.118.113.18-.108.02-.21.045-.113-.18z" fill="#F57D77"/><path d="M59.73 90.349l.012-.169.162.011-.13.2a1.745 1.745 0 00-.044-.042zm21.204-58.721l-.188.094c-.014-.081-.057-.192.188-.094zm-.555.448h-.141a2.76 2.76 0 00-.006-.042l.142-.03.005.072zm-70.282 1.467v.14a.633.633 0 00-.04.007l-.033-.138.073-.009zm66.296-1.876v.17h-.042v-.17h.042zm-59.865 1.86l.014.163-.055.007a32.76 32.76 0 01-.032-.166c.024 0 .049-.003.073-.004zm-1.942.377l.058-.205c.014.04.031.078.037.119.002.012-.03.029-.095.086zm-6.352-1.29v.14a5.954 5.954 0 00-.042.006l-.03-.141a1.76 1.76 0 01.072-.005zm50.842 58.243v-.17h.043v.17h-.043zm19.286-60.121c.007-.127.105-.073.17-.085-.008.127-.106.072-.17.085zm-28.1 54.039h.14l.007.04-.138.033-.009-.073zm2.625.677h.14l.007.04-.138.033-.009-.073zm.397.141h-.14a3.438 3.438 0 00-.007-.04l.138-.033.009.073zm.113.028h.14l.006.042-.141.03-.005-.072zm.731.225h-.14l-.006-.041.142-.031.004.072zm21.439-55.174h.17v.042h-.17v-.042zm3.063.643v-.141l.04-.006.034.139-.074.008zm-65.88 3.387v-.14l.041-.007.033.138-.073.01zm.82-.171h-.14l-.007-.04.137-.033.01.073zm64.961-3.881c.02-.022.038-.046.057-.07l.028.07h-.085zm-62.746 1.017l.056-.07c.01.023.02.046.028.07h-.084z" fill="#F57D77"/><path d="M15.794 31.675c-.02.023-.04.045-.06.07a3.406 3.406 0 00-.026-.028l.069-.059.017.017zm44.624 57.903l.069.059-.027.027-.059-.07.017-.016zm-7.629-4.169h-.085v-.028h.085v.028zm1.016.339h-.084v-.028h.084v.028zm1.835.367v.085h-.028v-.085h.028zm1.693.169v.085h-.028v-.085h.028zM9.942 34.602h-.085v-.028h.085v.029zm5.843-.592H15.7v-.029h.085v.029zm61.279-.82v.086h-.029v-.085h.029zm-62.304-.684l.059-.07.026.027-.069.06-.016-.017zm-1.713-.162v.085h-.029v-.085h.029zm64.101-.084v.084h-.028v-.085h.028z" fill="#F57D77"/><path d="M135.394 64.48h.029v-.084h-.029v.083zm-.69.608v.027h.082v-.027h-.082zm.746.276v-.028h-.083v.028h.083zm.138.027h-.027v.084h.027v-.084zm.249 0h-.027v.084h.027v-.084zm-.276.913h.027v-.083h-.027v.084zm.055 1.439v.027h.083v-.027h-.083zm.111-3.68h.027v-.083h-.027v.084zm.47.139v-.028h-.083v.028h.083zm3.125 6.583h-.028v.083h.028v-.083zm.802.415h.028v-.084h-.028v.084zm-3.291-1.909h-.028v.083h.028v-.083zm2.074 1.328h-.027v.083h.027v-.083zm-2.98-3.651h-.041v.166h.041v-.166zm-.38-.428l.072-.01-.032-.134-.04.006v.138zm2.537 3.747h-.041v.166h.041v-.166zm-1.507-.936c.027-.126.027-.126-.174-.11l.174.11zm-1.241-4.17c.24.095.198-.013.185-.093l-.185.093zm-.405 1.825v-.129l-.109.02.109.11zm1.316-3.032l-.079-.172-.04.03v.142h.119zm.718 5.823v.252l.176-.036-.176-.216zm-1.506-5.167l-.178.033.018.277.16-.31zm-.192.545l-.129-.144v.403l.129-.259zm1.51 5.07l.02.316.21-.22-.23-.096zm-1.547-3.678l-.051.044.177.24-.133.16.307-.134-.104-.217c-.065-.032-.131-.062-.196-.093zm.985 1.61l-.374-.292-.266.149.116.108.171-.098c.134.02.151.227.353.133zm.645 1.689v-.031l-.315-.317v.348h.315zm3.966 1.025l-.235.068-.245.23.02.193.106-.094.119.098.121-.342.234-.033a11.326 11.326 0 01-.12-.12zm-3.129-.945l-.015.017.058.067.026-.026a.226.226 0 00-.076-.049c-.014-.135-.121-.062-.187-.083-.135.055-.172.243-.345.255-.018.002-.029.097-.043.15.108-.107.223-.068.313-.102v.259l-.155.051.011.05.309-.053.081.058c-.008-.238-.008-.238-.233-.336.027-.04.078-.082.076-.121-.01-.145.083-.13.18-.137zm-2.662-2.582c0-.066.017-.124-.004-.144-.036-.035-.096-.047-.221-.103l.242.425.256-.13c-.097-.017-.171-.03-.281-.203l.016.017.068-.059-.027-.025c-.019.023-.038.045-.049.222zm.977-2.639a1.99 1.99 0 01-.071.004l.032.162.053-.008c-.005-.052-.009-.105-.101-.155l.094-.482-.221.197.077.118a15.1 15.1 0 00-.094.167c.072 0 .099 0 .231-.003zm-.569 2.583l.015-.015-.057-.069a.356.356 0 01-.027.027c.023.019.046.038.111.003l-.11.283.283.142c-.074-.181-.115-.283-.215-.37zm4.321 3.776c-.054.032-.11.032-.165.032l.076-.13a3.622 3.622 0 00-.087-.087c-.224.06-.432.113-.681.18l.206.122c-.072.132-.221.18-.178.33h-.122c-.119-.4-.119-.4-.054-.663-.111 0-.216 0-.326.004.002 0 .007-.006.013-.012l-.058-.067-.026.026c.023.02.045.039.071.053.03.08.056.164.091.276-.178.111-.054.303-.136.57.018.042.048.025.046.013-.005-.04-.023-.077-.036-.117-.013.05-.028.1-.01.104.133-.096.217-.087.383-.07-.127.093-.19.137-.241.176l.073.371-.262.126.077-.269c-.083-.069-.111-.197-.168-.309-.076-.15-.059-.233.017-.357.03-.049.032-.158 0-.198-.14-.168-.041-.366-.092-.538l-.217-.11c-.196.051-.387.178-.617.166-.021-.001-.044.05-.065.08-.197.028-.13.233-.225.363l-.257-.214.22-.09.012-.113-.248.053v-.146c-.138.023-.278.139-.429.009.08-.163.164-.33.249-.5l-.099-.097-.302.153c-.016-.137-.125-.061-.211-.09-.044.057-.092.123-.147.197l-.131-.153.227-.344a.56.56 0 00-.516.077 18.92 18.92 0 00-.121-.145c.021-.093.277-.23.462-.2.162.026.316.1.475.154.081-.14.18-.283.111-.467-.149.008-.227.108-.296.248-.14-.088-.27-.172-.408-.258l-.045.137-.15.023c.025-.086.043-.152.045-.163l-.042-.343.083-.064c-.028-.033-.055-.068-.083-.103l.083-.249c.18.036.152.21.197.343l.098-.099.27.337h.099l.027.069a.152.152 0 00.041-.076c.093-.007.172-.007.323-.007l-.187-.148a1.271 1.271 0 00-.136.155c-.013.007-.041.007-.068.007v-.303a.715.715 0 01-.251-.19c.084-.006.167-.017.32-.037l-.306-.157-.014.194c-.173.059-.207-.18-.37-.174a5.738 5.738 0 01-.043.086l-.166-.082.034-.073a66.89 66.89 0 01-.237-.238l.046-.05a8.874 8.874 0 00-.022-.207h-.3l-.028-.3-.232-.146c-.035-.337.008-.628.324-.866v-.361h.166v-.157c.049-.028.088-.058.126-.087l.086.075-.089-.104.216-.014-.036-.047-.303.016v.162a2.62 2.62 0 00-.166.156h-.248c.027-.055.054-.11.078-.17l.012.013.068-.058-.027-.026a.448.448 0 00-.053.072 9.836 9.836 0 01-.245-.08l-.082-.083.106-.16c.088-.09.257.1.315-.093.042.023.082.052.14.096.039-.147.038-.262-.133-.334 0 .085 0 .163-.007.238-.09-.023-.174-.05-.278-.083l.071-.084c-.028-.058-.054-.114-.073-.151l-.158.087c-.157-.105-.189-.329-.399-.345v-.167l.084-.082h.248v.305l.273.114-.091-.236.362-.245.12.067.173-.123-.088-.088c.085-.1.24-.186.133-.37-.029.022-.052.054-.082.063-.05.014-.105.013-.18.022l-.141-.21.179-.085a.657.657 0 00-.007-.044h-.236v-.196l.296-.206h.289c-.142.08-.211.117-.283.157.144.168.334.226.388.437.069-.23.33-.237.391-.443a4.35 4.35 0 00-.089-.168.086.086 0 00.012.013l.067-.058-.026-.026c-.019.023-.039.044-.053.071-.048.004-.099.004-.187.004l.134-.322h.146l.323.283a24.93 24.93 0 00-.093.093l.167.091c.007-.085.014-.187.02-.285.022-.01.034-.02.042-.016.011.005.018.02.029.028.468.344.915.712 1.305 1.144.031.033.024.1.04.179-.279.04-.315.32-.473.486-.155.162-.233.397-.365.638v.216l-.149.116c-.04.27-.085.492-.102.715-.016.22-.004.441-.004.631.152.28.283.535.248.815.112.156.253.282.302.437.102.32.36.45.611.602-.02.02-.039.04-.062.061l.363.302.076-.076c.209.275.509.377.836.425.079.147.251-.136.316.069.138.001.275.004.412.006.125 0 .249.008.373-.002.129-.01.251.017.388-.066.135-.082.328-.068.506-.1l.282 1.068-.198.016-.216.255-.016.14-.287.042.236.151c-.19.204-.045.422-.12.596l.162.162v.31h-.121l-.144-.388c-.081-.045-.242-.082-.213-.275h.151l.02-.329-.318-.128-.072-.16-.056.292c-.306-.025-.153-.4-.389-.444.033-.058.059-.1.083-.176l.003.039.161-.031a.997.997 0 00-.007-.054.287.287 0 00-.157.046z" fill="#CC2C3D"/><path d="M140.081 72.596l-.005-.071-.138.03.006.041h.137zm-.559-.834c.022.101.049.184.081.271a.086.086 0 00-.012-.013l-.067.06.025.025a.43.43 0 00.054-.072c.037-.003.079-.003.147-.003l.022.216.475.251v.304l-.208-.097-.357.072.102-.396-.326-.03a4.779 4.779 0 01-.051-.141l-.223.109v.126h-.249c0-.068 0-.117.007-.166.076-.037.156-.08.248-.128l-.241-.113c0 .084 0 .163-.007.24-.097.063-.188.124-.314.21l-.025-.292h.167c-.042-.08-.07-.132-.099-.19l.222-.127.154.092-.112-.438c.209 0 .294-.12.336-.31.018-.075.088-.138.136-.209l.192.103c0 .139 0 .278.004.42a.077.077 0 00-.012-.013l-.067.058.025.026a.43.43 0 00.054-.071 1.68 1.68 0 01.148-.092l.015.218a1.52 1.52 0 01-.244.1 2.94 2.94 0 00-.409-.124v.196l.106.106c.099-.053.144-.206.303-.178zm-5.151-7.034l-.166-.249.344-.128c-.02-.069-.043-.14-.062-.214-.021-.075-.038-.15-.052-.209l-.297.063-.016-.157.247-.038v-.313h.335l-.06.231.142.184v.226l-.222.072.286.055-.081.247-.398.23zm.329 3.24a5.79 5.79 0 01-.001.475c-.002.036-.051.068-.082.106l.012-.012-.058-.068a.633.633 0 01-.026.026c.022.02.045.04.072.054.003.037.003.079.003.12l-.222.114-.183-.262v-.234l.302.058.072-.17-.082-.352a26.899 26.899 0 00-.234-.186l.16-.275.352.243c-.047.097.085.253-.085.363l.012-.012-.058-.068-.026.027c.023.02.045.038.072.053zm-.91-5.232l.076.13-.151.153.284.186-.275.043v.235l.151-.098.182.149-.098.202c-.002.01.209.104-.003.162-.106-.17-.309-.252-.413-.523l.072-.358-.06-.06.109-.221h.126zm1.66 6.141l-.224-.059-.174.085v-.325c-.058-.017-.109-.023-.151-.045-.035-.02-.058-.057-.1-.098v-.317a.813.813 0 01.387.2c.044.038.119.042.179.06l-.065.237.148.095v.167zm-1.411-3.569c-.071.02-.142.04-.267.073l-.241-.119c.044-.143.115-.222.255-.205.008.058.018.112.02.118l.164-.062-.032-.046-.152-.01c-.004-.098.039-.213-.092-.294l.31-.199.119.164-.084.082a5.987 5.987 0 01-.083.064c.028.033.056.068.083.103v.331zm2.56 5.656l.112.665-.476-.144.192-.164-.157-.187.123-.25.206.08zm-1.895-7.813l-.561.111v-.417c.211-.005.403.028.561.1v.206zm4.646 10.206l-.166.25c-.056-.053-.162-.109-.157-.154.019-.204-.132-.238-.256-.302l.115-.45.095-.01.147.583h.139l.083.083zm-3.373-1.455l-.235.106-.091-.052-.078.066-.125-.115.057-.235.172-.212.3.442zm-2.021-8.004l.076.131-.074.079.247.139v.232h-.224l-.153-.25h-.188c-.006-.071-.013-.144-.017-.207l.333-.124zm.581 1.992l-.15.204a20.069 20.069 0 01-.201-.18l.083-.148c-.149-.055-.17-.247-.309-.32l.079-.138c.175-.047.178.189.317.195.068.09-.079.248.099.303l.082.083zm3.926 6.704l.132.133c-.1.219-.295.403-.228.703l-.251.012v-.225l.148-.054c-.027-.04-.051-.08-.082-.128l.281-.44zm-4.673-6.124c-.027.02-.069.036-.08.063-.036.09-.061.186-.091.278a11.987 11.987 0 00-.161-.092v-.128l.168-.076-.097-.105.139-.286.268.074a2.35 2.35 0 01.063-.059l.121.12-.103.112-.227-.088v.187zm6.171 6.632l.124.108.298-.23.207.203c-.133.075-.2.108-.259.15-.052.036-.096.085-.147.13a37.408 37.408 0 01-.374-.15l.151-.21zm-5.325-3.012l-.327.39c-.211-.13-.293-.293-.255-.524h.118l.059.175.355-.09.05.049zm.854-6.754l.044.319c-.219-.088-.156-.255-.168-.396-.133-.065-.321.048-.403-.172l.215-.124.366.244-.054.13zm1.702 8.113l.211-.11.083.187-.125.133.367.13c-.089.082-.14.13-.226.212l-.084-.204c-.124-.02-.268-.015-.309-.183.125-.006.071-.102.083-.165zm-3.063-4.47c.071.003.15.003.235.003v.123l-.466.107-.092-.21c.018-.17.018-.17.306-.188l.017.165c-.004-.01-.009-.014-.014-.02l-.068.058a.633.633 0 01.026.026l.056-.064zm.565-.589l-.154.49-.223-.132c.106-.02.143-.028.219-.044l-.232-.374.236-.236c.068.072.138.142.207.213l-.053.083z" fill="#CC2C3D"/><path d="M137.109 71.614h-.316v-.42c.147.045.274.085.399.125v.13c-.124.007-.07.103-.083.165zm3.783-.353l.248.124.073-.21.164.402-.501.135-.042-.064c.08-.02.16-.037.241-.056l-.083-.085-.1-.246zm-1.625 2.013c.08-.284.213-.443.415-.498l.091.173-.423.408a6.503 6.503 0 01-.083-.083zm-3.319-2.074c.03-.017.06-.034.097-.053l-.126-.25c.097-.015.168-.025.279-.04l-.045.332.071.244-.359.02v-.17l.083-.083zm-1.933-3.67l.24.177-.2.13-.034.201-.218-.106c-.069-.18.084-.263.212-.402zm.315 1.553l-.197.07c.013.017.028.033.043.05h-.27l-.132-.285c.21-.141.332.152.528.003l.028.162zm3.405 2.141l-.129-.392.137-.145.092.16-.084.099h.35c-.019.047-.021.075-.035.084-.107.066-.217.127-.331.194zm-.287 2.178v-.26l.27-.132.182.215-.452.177zm1.083.226c.151-.06.247-.005.331.132l-.078.134c.021.04.042.074.061.108-.215-.053-.367-.143-.314-.374zm-5.474-9.643v-.315c.17-.082.132.077.184.136l.146.014-.22.22-.11-.055zm1.517 5.798h-.422c.089-.207.11-.235.256-.335l.166.335zm-1.518-5.761l-.181.08.053.055-.107.206-.205-.184c.019-.042.024-.088.051-.108.079-.061.167-.112.253-.17l.136.12zm7.873 9.006l-.283.102-.131-.258c.087-.039.184-.08.279-.121l.135.277zm-7.476-8.212l-.193-.147.153-.194.101.1.075.374-.235.123c.039-.103.063-.166.099-.256zm1.793 5.968c-.141.025-.24-.02-.304-.18l.205-.135.206.096-.107.219zm2.21 1.512c-.043.208-.15.265-.322.217-.068-.159-.007-.256.139-.325l.183.108zm-4.339-5.142c-.182-.121-.175-.264-.14-.425h.199c.023.217.019.256-.059.425zm2.167 2.984c.038-.029.067-.055.099-.074.022-.012.048-.018.1-.036l.157.296c-.054.02-.086.042-.121.045-.175.011-.243-.084-.235-.231zm1.759 2.663l-.129.13h-.229c.019-.09.018-.17.052-.232.055-.106.12-.092.184.009.025.04.08.063.122.093zm2.39 1.054l-.21.11-.084-.187.045-.172c.186.018.232.063.249.25zm1.089.037l-.141.336-.248-.227c.134-.065.231-.114.327-.162l.062.053zm-7.519-6.497h.359l.017.208c-.19.077-.282-.004-.376-.208zm1.394-4.923l.548.114v.123c-.114.052-.197.03-.289-.053-.07-.063-.178-.084-.27-.123l.011-.061zm2.879 8.259l.239.156v.251l-.239-.24v-.167zm-3.651-2.821l.19.237c-.15.13-.292.019-.401.073.067-.098.128-.19.211-.31zm4.346 5.024c-.011-.025-.036-.053-.029-.07.017-.047.047-.09.066-.125l-.097-.194h.297c-.074.149-.083.306-.237.389zm-2.813-3.849l.076.263-.169.098a26.06 26.06 0 01-.099-.1l.108-.221.084-.04zm1.039 2.881l.263.383h-.228c.026-.11-.203-.17-.035-.383zm-1.388-1.114l-.342.133v-.252c.132-.103.227-.01.342.12zm-.748-8.448h.211l.021.235h-.232v-.235zm-1.017 5.87v-.21l.234-.022v.232h-.234zm1.66-4.791c-.031-.054-.06-.11-.091-.166.031-.058.06-.112.091-.166.162.046.192.159.142.332h-.142zm-1.566 2.086h.229v.22h-.229v-.22zm7.903 6.704c-.013-.269-.013-.269.101-.427l.112.202-.213.225zm-4.642-1.862l-.188.08a6.923 6.923 0 00-.094-.121c-.032-.04-.066-.078-.058-.176l.311.121.029.096zm-3.12-.811a80.578 80.578 0 00-.231-.465l.231-.012v.477z" fill="#CC2C3D"/><path d="M136.861 72.663l-.114-.45.314.202-.2.248zm-.488.807v-.35l.222-.014c.006.053.029.104.014.124-.059.073-.13.136-.236.24zm-.816-2.828l.37-.145v.313l-.37-.168zm2.877 2.677l.13-.13c.065.104.22.135.201.322-.175.048-.219-.123-.331-.192zm-5.327-7.744c-.118-.1-.2-.186-.127-.326.133.023.133.023.235.144l-.108.182zm-.422.922l-.212.264-.159-.147c-.015-.08.102-.127.371-.117zm2.203 3.215c-.121-.01-.195-.014-.336-.024l.275-.3.061.324zm-1.763-6.189l-.267-.144.285-.098.097.1-.115.142zm3.755 8.488l-.253.023v-.248c.165-.022.209.077.253.225zm-1.119.659c.064-.055.129-.109.233-.195l.049.28h-.261l-.021-.085zm2.518-.048v-.252c.069-.004.142-.006.201-.01.089.1.014.2-.201.262zm1.402 1.825h.233v.242c-.178-.012-.24-.1-.233-.242zm-5.891-7.966h.234v.242c-.179-.011-.241-.1-.234-.242zm3.867 5.532l.32.159-.213.215-.058-.039c.017-.042.051-.088.045-.128-.007-.054-.044-.104-.094-.207zm-3.03-2.619c-.059-.045-.117-.092-.182-.144l.223-.178.039.283-.08.04zm-1.447-6.644h.303l-.146.273a36.75 36.75 0 00-.157-.272zm2.685 8.533h-.146l-.02-.237c.16-.03.214.05.249.154l-.083.083zm2.109 2.954l.284-.17.018.31-.302-.14zm2.08-.353l-.16-.257h.324c-.06.096-.1.158-.164.257zm-6.155-8.282c.062.12.095.186.139.274l-.27.02.131-.294zm-.227-3.172l.3.166c-.047.047-.075.087-.113.11-.062.04-.065.035-.187-.277zm-.616 2.34l-.124.222-.138-.143.194-.142.068.063zm7.292 7.249h-.24c-.003-.047-.007-.084-.012-.138h.241l.011.138zm-6.696-1.807a8.492 8.492 0 00-.128-.202c.148-.131.19.018.268.07l-.14.132zm1.636-.114l-.132.103-.123-.124.208-.173.047.194zm4.142 3.768h.239l.013.137h-.241a3.797 3.797 0 00-.011-.137zm-1.555-2.44l.16.16-.219.124-.044-.05c.028-.03.065-.054.082-.088.015-.03.012-.072.021-.146zm-3.928-3.876a9.22 9.22 0 01-.145-.01 9.233 9.233 0 00-.013-.148l.251-.012-.093.17zm6.969 5.472l.2.015-.158.307-.042-.322zm.273.236v-.308c.059.008.146-.061.122.062-.018.085-.053.166-.082.25l-.04-.004zm-4.087.168c.013-.064.023-.11.038-.191l.26.19h-.298zm3.783.264l.122.121-.133.141a6.156 6.156 0 00-.106-.146l.117-.117zm-3.446-1.42l.011-.146.149-.013.011.25-.171-.092zm-5.383-6.403l.215-.175.036.175h-.251zm1.403-.219h.148l.024.121c-.111.065-.178.063-.172-.121zm-.761 2.789l-.147-.285.147-.03v.315zm4.08 2.348v.166h-.167v-.166h.167zm-1.162 1.681v.121l-.146.03-.03-.15h.176zm-.746-1.176h.148c.009.042.015.08.023.122-.11.064-.178.063-.171-.123zm-1.408-4.575l-.013.159-.141.011-.016-.156.17-.014zm1.655 1.325h-.148l-.023-.122c.11-.065.178-.064.171.121zm.295-5.245l.11.176c-.106.019-.205.045-.11-.176zm.172 8.232h-.119v-.143l.039-.03.08.173zm3.551 1.69l.175.11c-.202.015-.202.015-.175-.11zm-2.765-.791v-.132h.244c-.127.07-.181.098-.244.132zm1.078.706v-.09h.143l.026.036-.169.054zm2.355-.832l-.11.112-.019-.111h.129zm-6.128-5.752h-.119v-.142l.039-.03a7.2 7.2 0 01.08.172zm-.548 1.082l.164.014-.01.157-.196-.125.042-.045zm1.256 1.076h-.149a.226.226 0 00-.025-.028 7.7 7.7 0 01.16-.05l.014.078zm1.882 2.482h-.138a3.757 3.757 0 01-.006-.04l.139-.03.005.07zm3.12 1.852a15.55 15.55 0 01-.201-.057c.039-.013.076-.03.117-.036.011-.001.028.03.084.093zm-1.129 1.052h-.138l-.005-.04.138-.03.005.07zm.942 1.162v-.137l.039-.006.032.134a1.675 1.675 0 01-.071.01zm-6.583-10.124h-.137c-.003-.013-.004-.025-.006-.04l.134-.031a.863.863 0 01.009.071zm.497 1.69v.137a4.289 4.289 0 01-.041.006l-.03-.14a.821.821 0 00.071-.004zm-.96-2.837v-.166h.041v.166h-.041zm1.707 4.828v.137a2.309 2.309 0 00-.04.006l-.03-.138.07-.005zm1.038.566v-.084h.027v.084h-.027zm0 3.069v-.083h.027v.083h-.027zm6.389-.083v-.082h.028v.082h-.028zm-4.84.775h.083v.028h-.083v-.028zm4.895.111h-.082v-.027h.082v.027zm-1.501.451l-.067-.058.025-.026.059.068-.017.016zm-.166 1.245l-.068-.058.027-.027.057.068-.016.017zm-5.524-10.962V63.4h.027v.083h-.027zm1.466-.553h.083v.028h-.083v-.028zm-2.379-.443v-.083h.028v.083h-.028zm1.383 3.734c.028-.027.055-.056.084-.083-.029.027-.056.056-.084.083zm-66.08 66.834v.028h.084v-.028h-.085zm.108-.169l.237-.444h.227c.067.207-.011.377-.134.523-.125.148-.28.255-.476.229a74.276 74.276 0 00-.15-.227l-.102.224h-.42l-.227-.209c.01-.048.009-.079.023-.098.073-.097.166-.141.302-.097l.018.109.016.123h.221l.022-.129-.147-.051-.12-.37c.046-.025.106-.06.196-.112l.187.145-.228.271c.124 0 .221-.016.311.004.087.019.165.073.244.109zm4.636-.699l.168-.098c.143.134.143.134.166.284l-.5.315c.046.21.358.141.33.394-.187.07-.365.035-.538-.076l-.093.195a4.732 4.732 0 01-.123-.023l.088-.155-.35-.277.335-.102.035.026.262-.327h.206l.014-.156zm-2.297.161c.03-.102.066-.2.105-.302l.292-.098.224.111-.206.299.08.573c-.18.026-.272-.105-.37-.256l-.148.232-.18-.215.07-.334c.035-.003.088-.008.133-.01.036.03.064.058.096.082a.1.1 0 00-.012.012l.059.069.026-.027c-.023-.019-.046-.04-.073-.054-.032-.024-.06-.052-.096-.082zm1.055.591h-.173l-.14-.361.452-.406v-.141h.569c.137.198.142.242.04.344-.103.101-.188.08-.424-.116l-.324.68zm4.88-2.96a97.844 97.844 0 00-.126-.323l-.227-.04.122-.245.192.182h.253c.118-.223.118-.223.346-.243.01.01.028.019.028.03.003.055.001.111.001.177.162.006.174.162.25.248-.092.176-.249.119-.395.13l-.047-.293-.168.461h-.144l-.085-.084zm3.895 2.906v.029h.085v-.029h-.085zm-.493-.451h.194l.163.387.273-.209h.27c.066.245-.042.422-.206.599l-.694-.311v-.466zm.916-4.855v-.028h-.084v.028h.085zm.022-.174l.316-.065c0 .095.028.183-.005.223-.138.168-.302.31-.542.3l-.124-.124a4.9 4.9 0 01.074-.086c-.132-.12-.39-.095-.429-.387l.333.048.046-.239c.18.073.29.178.33.33zm-8.632 3.761h.261l.18-.294.172.319c-.09.038-.152.053-.2.088-.041.03-.066.083-.1.123-.037.043-.076.083-.13.141l.048.205-.14.187-.26-.115-.117-.233.285-.421zm8.95-2.797l.154-.209.205.183-.095.166.153.056c-.01.077-.02.173-.037.303l.172.245.184-.105.029.248c-.103.102-.412-.008-.61-.209.028-.039.057-.082.11-.161l-.265.049v-.397h.232l-.232-.169zm-15.366 4.404h-.132l-.363.422c-.152-.237-.387.187-.523-.085-.124.159-.29.046-.463.109l.121-.292c.117.025.277.113.353.066.141-.087.273-.018.412-.059.058-.145.126-.296.347-.239l.068-.198.18.276zm8.529-1.705l-.15-.242.002-.002-.196-.195.095-.474h.233l-.055.328c.01.018.037.076.076.157.15.023.366.028.306.292-.026.113-.132.171-.311.136zm1.917-.313v.377c-.139.078-.238.024-.324-.09l-.017-.311-.122.09c-.127-.142-.245-.283-.185-.525.28.097.412.35.648.459zm3.402 1.86l-.59-.401v-.168l.237-.123.12.308.352-.064c.05.104.136.2.116.263-.022.072-.138.114-.235.185zm2.661-3.06l.085.085.191-.254c.016 0 .078-.018.123.003.118.055.122.076.146.301l-.303.147-.165.26-.24-.187.116-.145a4.08 4.08 0 01-.076-.088l.123-.122zm-5.805 3.129c-.064.038-.132.071-.19.1l-.144-.18v-.305c.133.09.218.146.324.219h.422l.02.341-.295.105a11.758 11.758 0 00-.137-.28c0 .002.006.007.012.013l.07-.06a.646.646 0 01-.028-.026.53.53 0 00-.054.073zm3.976-4.494v.316l-.144.138-.22-.173.112-.145-.244-.152c-.02-.164.02-.266.193-.324l.142.162.161.178zm3.037 4.121l.21.076-.133.227c-.148-.121-.201-.32-.365-.355l.082-.431.479.218c.012.19-.137.196-.273.265zm-10.557-.821v-.463l.123-.117c.2 0 .246.147.12.402a9.3 9.3 0 01.246.04v.203c-.185.122-.322-.058-.49-.065zm-3.642 1.248c.108-.176.333-.239.424-.434.011-.024.069-.033.106-.038.039-.004.079.005.129.011v.296c-.349.335-.412.353-.659.165zm-3.185-.898l.198-.241.238.302.309-.157.103.096-.227.249a5.99 5.99 0 01-.12-.07l-.086.184-.415-.363zm17.003-4.437c-.15.231-.096.542-.4.643l-.139-.4.136-.055.16-.37c.1.074.162.12.243.182zm-15.532 3.393l.15-.15c.066.206.433.15.37.472l-.165.174.077.087-.118.119-.314-.702zm10.872 1.107l-.31-.309-.26.215-.052-.222.25-.254.319.117c.02.108.191.219.053.453zm-5.003-1.354c-.066.178-.173.225-.327.174l-.059-.169-.188.087a8.21 8.21 0 00-.132-.124l.166-.092.04-.288c.15.024.193.101.242.209.037.083.156.128.258.203zm3.905-2.268c.172-.03.115-.227.204-.378l.249.246-.203.069c.021.048.054.097.063.15.011.068.003.138.003.219l-.43.133c.041-.162.076-.294.114-.439zm-5.822 2.893l.097.071.056-.157h.294v.227l-.274.026-.194.285-.293-.262.313-.19zm11.713-.784l-.224.023-.027.137c-.062-.021-.124-.051-.19-.061-.065-.011-.133-.003-.187-.003l-.106-.222.13-.135.255.177.042-.151h.307v.235zm-11.918-.206l-.027.122h-.218v-.338l.308.065.022-.105c.125-.098.22-.028.314.077l-.097.23-.302-.051zm8.629-3.489v-.23c.112-.132.23-.207.378-.046l.09-.08.182.183-.1.178a7.505 7.505 0 00-.147-.072l-.403.067zm-1.294 3.974l.079.183-.079.3h-.295v-.483h.295zm-7.885.256l.102.199c-.055.053-.05.097.009.177.04.054.008.163.008.274l-.228.014-.13-.664h.239zm-1.589 1.081l-.169-.096-.286.265-.194-.194v-.247l.217.094.13-.175.177.176.125-.067v.244zm10.025.535l-.13.131-.558-.099v-.205c.134-.019.267-.065.372.057l.15-.106.166.222zm-1.185-3.33v-.279l.388-.31.13.296c-.22.062-.272.319-.518.293zm2.602 1.223l.215-.09c.103.156.386-.065.467.237l-.116.159h-.266c-.014-.176-.212-.17-.3-.306zm-.962-.043l.1.344-.305.13v-.268l-.342.068v-.24c.029-.006.068-.026.104-.021a.42.42 0 01.147.05c.113.067.207.051.296-.063zm3.166-1.866c-.033-.196.091-.341.191-.492h.188c.13.173-.005.32-.057.492h-.322zm-3.386.098v.145l.254.049v.139l-.231-.052-.036.107c-.231.025-.309-.01-.326-.151-.02-.162.06-.217.339-.237zm1.972 3.713c.085.018.154.023.216.045.062.021.117.058.194.098l-.126.467-.172-.036.12-.205h-.232v-.369zm-6.01-2.655l-.336.104a30.337 30.337 0 01-.22-.124l.22-.374c.238.048.237.25.336.394zm3.015 2.436v.3l-.233.033.113.287-.31-.157.092-.101a14.552 14.552 0 00-.106-.142c.132-.111.189-.302.444-.22zm-1.703-1.76v.473l-.127.213-.204-.181c.03-.215.087-.392.331-.505zm4.744.928l.401.198-.373.348h-.182c.007-.076-.007-.163.027-.222.053-.09.181-.137.127-.324zm-4.372-1.225l.16.503c-.062.153-.162.203-.307.176l-.106-.111.253-.568zm5.666 2.237l-.125.125h-.288v-.459l.291.21.079-.215.043.339zm-13.897-1.493a.21.21 0 01-.222.19.207.207 0 01-.201-.211c0-.134.113-.232.243-.213a.216.216 0 01.18.234zm12.279-4.519a.21.21 0 01-.191.221.205.205 0 01-.233-.222.208.208 0 01.212-.201c.116 0 .207.086.212.202zm-13.513 5.478h.438c.109.165-.046.271-.08.411l-.189.01-.169-.421zm7.481.474c.204.125.281.291.272.522h-.304l-.099-.297.131-.225zm-9.874-.405l.266-.099.167.196c-.105.078-.198.13-.267.204-.055.059-.082.145-.166.299v-.6zm11.685-5.911h.325l.114.273-.24.122-.2-.095v-.3zm6.121 3.335l.34-.344.075.214.046-.047v.296h-.293l.041-.04-.208-.079zm-7.728 1.178l-.281.151c-.067-.1-.134-.199-.21-.315l.194-.111.297.275zm6.528.661a.866.866 0 00.347-.382l.177.233-.188.069a.417.417 0 01-.246.391l-.09-.311zm-4.161-.292c.052.048.102.071.108.103.025.134.037.269.059.449l-.315-.079c-.025-.307-.025-.307.148-.473zm3.702-6.871l-.256.126c-.135-.077-.201-.181-.138-.314.042-.09.134-.15.244-.115.139.044.196.145.15.303zm-9.362 6.444l-.11-.219.477-.229c.016.096.026.145.031.195.013.124.016.231-.17.199-.068-.011-.147.033-.228.054zm.693-2.009l.154.161-.264.304c-.07-.08-.157-.135-.178-.21-.042-.152.029-.207.288-.255zm2.982.242l-.155.354-.24-.125c.027.026.007.013.009.007.05-.155.102-.309.147-.442l.239.206zm.724-.024c.079.101.14.177.206.263l-.088.188H76.7c-.079-.079-.027-.262.157-.451zm4.171.259c.085.247.04.434-.086.636l-.225-.337c.064-.137.17-.223.31-.299zm-13.935 4.205c.142-.185.142-.185.447-.278l-.088.228.153.153c-.208.105-.36.011-.512-.103zm12.382-1.8h.215l.19.296c-.196.157-.196.157-.42.005l.015-.301zm2.752-4.049l-.2.102-.034-.372c.085 0 .165-.024.214.004.11.066.205.159.33.258-.113.115-.209.111-.31.008zm-.668 2.595l.083-.311h.38l-.083.311h-.38zm-6.67 3.147v.233h-.397c-.011-.341.068-.388.397-.233zm5.237-6.357h-.21l-.155-.397h.365v.397zm.207 1.307l-.27.141-.201-.488c.083-.01.146-.02.215-.029l.256.376zm.044 1.776l-.317-.146-.008-.174.214-.112.241.118-.13.314zm-5.403 1.875v-.195l.308-.018c.026.145.19.247.073.437l-.381-.224zm1.51-1.995h-.31v-.395l.31.09v.305zm4.517-4.88l.224-.1.144.27c-.11.075-.2.135-.288.197l-.08-.081v-.286zm-4.398 7.401l.087-.207c.087-.055.167-.019.32.153l-.27.271-.137-.217zm-5.584-.445l-.21.137c-.028-.011-.121-.018-.166-.069-.052-.059-.062-.156-.095-.247.2-.041.358-.073.47.179zm10.836-8.577c-.234.199-.234.199-.446.02.166-.272.203-.276.446-.02zm-4.941 2.724v.382h-.317c-.004-.075-.035-.175-.009-.256.05-.154.198-.012.326-.126zm-2.234 3.571l-.054-.217-.07.061v-.29c.042-.006.085-.027.116-.015.08.03.155.074.24.117l-.148.303-.084.041zm-10.327 3.598c-.152.02-.257-.021-.304-.165.038-.149.148-.182.303-.17l.156.145-.155.19zm12.907-1.184h.236c.026.146.06.289-.097.409l-.224-.11v-.214a6.18 6.18 0 00.085-.085zm3.411-1.691l.196.4h-.475c-.005-.184.149-.225.28-.4zm3.56.364l.304.249-.225.227c-.236-.149-.236-.149-.079-.476zm-3.584.734c.022-.307.022-.307.309-.325l.114.241c-.124.111-.276.082-.423.084zm.032-5.806l.176-.204c.154-.012.263.021.312.215l-.191.058.043.081c-.053-.034-.105-.072-.161-.1-.041-.02-.09-.025-.18-.05zm-2.788-.921l.341.144-.42.324c-.12-.177.04-.284.079-.468z" fill="#CC2C3D"/><path d="M66.17 132.767l.277.143-.132.306c-.277-.171-.277-.171-.144-.449zm15.312-.56l-.393.31-.126-.271.12-.119.399.08zm.588-4.117l.226-.225c.158.099.147.244.117.394-.165.069-.267.01-.343-.169zm-13.374 1.061h.4l-.317.451c-.125-.174-.031-.319-.083-.451zm4.164.284v-.179l.113-.113.25.125-.15.339-.213-.172zm11.157.016l.025.23-.248.235-.192-.149c.139-.099.213-.264.415-.316zm-9.614 2.124c.245.144.274.271.13.496-.01.006-.026.019-.028.017-.07-.066-.138-.135-.178-.175l.076-.338zm-2.745-2.249c-.014-.123.025-.161.08-.213.155.102.322.188.262.442-.22.004-.255-.222-.342-.229a.634.634 0 01.107.069l.069-.06-.027-.026c-.02.023-.04.046-.149.017zm6.951.474h-.32v-.225h.423l-.103.225zm.275-.259c.146.104.2.209.14.318-.064.119-.178.169-.34.073l.2-.391zm-2.639.86v-.221l-.155-.052-.022-.132c.08.025.144.054.21.065.066.01.135.002.201.002-.004.276-.004.276-.234.338zm-1.385 2.439l.221-.182.168.32-.176.206-.213-.344zm-1.136.266c-.129-.244-.129-.244.08-.437l.177.166a.657.657 0 01-.257.271zm-2.211-5.091c.22.211.22.211.225.453l-.354-.141.13-.312zm8.94 3.695l.353.33-.281.094c-.066.046-.127-.157-.072-.424zm-6.332.669v.189c-.132.132-.312.004-.413-.313.146.045.274.083.413.124zm6.413-8.278l.333.163-.198.234c-.175-.095-.248-.196-.135-.397zm-.541 9.082h-.433c-.035-.15.045-.215.158-.239.147-.03.219.061.275.239zm1.142-1.235l-.144-.147.125-.135.17.065.197-.079v.263a6.694 6.694 0 00-.16-.078l-.188.111zm-4.481-.55v.217l-.249.245a8.658 8.658 0 00-.173-.15l.422-.312zm-12.489.307l-.333-.162.198-.234c.176.095.249.197.135.396zm11.963-.071l-.356-.177.18-.219c.182.04.239.149.176.396zm4.944-.553c.14-.009.28-.016.349.183-.04.047-.092.104-.14.157-.224-.032-.214-.189-.209-.34zm2.43-.036l.172-.135c.124 0 .168.074.175.317-.15.062-.253.009-.347-.182zm-16.297-.897h.19l.12.238-.31.15v-.388zm12.681-1.539v-.283l.12-.117c.189.08.121.243.138.4h-.258zm-.452-.678l.097.393c-.168-.109-.354-.117-.431-.345l.334-.048zm-5.234.336c-.167.046-.274.002-.351-.205l.172-.121c.16.044.222.144.178.326zm-.525-1.371l.334.163-.198.233c-.176-.094-.25-.196-.136-.396zm5.493-.105l-.17.356-.228-.185c.064-.187.174-.227.398-.171zm3.08-.198l.135-.213c.19.172.19.172.198.356-.15.068-.253.013-.333-.143zm.737-.424c-.042-.034-.07-.066-.106-.084-.034-.017-.075-.02-.159-.04l.24-.296c.167.075.176.18.025.42zm-19.569 6.095c.127.166.127.166.086.423-.277-.143-.283-.169-.086-.423zm7.38-1.158c-.21-.081-.255-.187-.206-.352h.2l.106.214-.1.138zm.374-.926l.19.204-.166.213a32.34 32.34 0 00-.243-.184l.22-.233zm3.758 2.205l-.308.147-.114-.246h.384l.038.099zm1.068.713a7.765 7.765 0 00-.072-.11c.03-.059.066-.135.102-.21.14-.018.191.059.205.32h-.235zm.261-5.879l.224-.111.105.16c-.036.147-.153.187-.329.164v-.213zm1.483.022l.122-.319.255.146c-.05.161-.141.235-.377.173zm5.348-1.004l.019.308-.128.128c-.199-.247-.194-.272.109-.436zm-5.856 1.821l-.125-.246c-.003.005-.001-.01.006-.013.06-.027.12-.05.165-.069l.248.208-.294.12zm5.01-3.34l-.193-.234.193-.211.211.178-.21.267zm-.14 3.098l-.212-.197.174-.207.22.162-.182.242zm-3.055-.396v-.2l.198-.102.147.106c-.055.174-.146.249-.345.196zm3.773 4.443a8.222 8.222 0 01-.136-.056l.072-.087-.104-.15.227-.188c.027.064.06.102.052.13-.028.113-.07.224-.111.351zm-3.344-6.203s.019.005.027-.001c.022-.017.04-.04.033-.032l.214.214-.274.108v-.289zm2.216-.331h.21v.314c-.23-.051-.229-.052-.21-.314zm-5.367-.382l-.152.143-.208-.163.189-.249.17.269zm4.873 4.862l.148.148-.42.178c.031-.197.031-.197.272-.326zm-11.798.352v-.364c.093.02.22.021.23.057.044.148-.017.261-.23.307zm11.262-6.548h-.365c.021-.093.022-.22.058-.231.148-.044.26.019.307.231zm-4.756 4.545l.21-.209c.104.08.18.171.106.325h-.2l-.116-.116zm-3.311-.372v.226c-.166.05-.282.011-.34-.188.106-.087.221-.037.34-.038zm7.598-5.77c-.151.028-.253-.02-.319-.186l.127-.142.213.271a2.58 2.58 0 01-.021.057zm3.997 8.47h-.198a15.361 15.361 0 01-.117-.12c.066-.123.166-.165.315-.116v.236zm-12.01-.128v.278l-.209.022-.153-.152.362-.148zm5.88-1.045l-.167.418-.157-.418h.324zm-4.017-.307v-.166c.073-.087.145-.07.337.078-.092.107-.186.206-.337.088zm-3.973 2.58l-.329.125-.019-.263c.145-.062.25-.04.348.138z" fill="#CC2C3D"/><path d="M74.238 129.059l.106.238-.187.166a18.677 18.677 0 01-.149-.141l.23-.263zm10.894 4.124h-.38l.217-.301a258 258 0 00.163.301zm-17.517-.593v-.227h.233l.018.227h-.25zm11.518-3.236l.14-.172.206.2c-.07.131-.152.117-.346-.028zm-3.703-2.076l.172.139-.2.206c-.132-.07-.117-.152.028-.345zm.115 3.632h-.215l-.021-.24h.236v.24zm1.579-3.886l.172.14c-.076.077-.142.144-.2.206-.132-.071-.118-.152.028-.346zm7.451 5.16l.172-.159c.14.063.165.171.1.354l-.272-.195zm-8.57-.167h.226v.232l-.226.02v-.252zm2.103-6.38v-.214l.24-.022v.236h-.24zm-.932 6.204l-.34-.111c.107-.069.149-.109.198-.124.062-.018.13-.016.227-.025v.175a6.18 6.18 0 01-.085.085zm3.564-.678c-.13.139-.197.208-.258.272-.133-.075-.118-.153.037-.354.029.028.057.057.088.082.009.007.027 0 .133 0zm1.132-4.776l-.288-.246.265-.098c.075.034.103.141.023.344zm-13.239 5.168l.14-.172.206.2c-.07.131-.152.118-.346-.028zm12.257-8.896v.279c-.062.003-.137.009-.235.016-.024-.169.071-.221.235-.295zm1.889 5.866v-.218h.307l-.233.254-.074-.036zm-5.009-.251h-.239v-.247c.182.012.246.102.239.247zm5.492.256v.246c-.18.056-.2-.078-.285-.207l.285-.039zm-5.235 3.805c-.013-.17.076-.224.237-.252l.016.252h-.253zm6.242.272l.144-.176.237.237-.345.024-.036-.085zm-9.333-.021l.167-.271.123.233c-.019.147-.15.032-.29.038zm8.621.427h-.309l.15-.279.16.279zm-15.743-3.268h.338l-.154.25a88.879 88.879 0 01-.184-.25zm-1.384 2.876c.13-.098.204-.152.286-.212.026.062.05.092.043.107-.051.103-.099.223-.33.105zm9.514-2.563l-.16.174c-.044-.077-.084-.146-.124-.219l.107-.108.177.153zm.822-5.422l.364.021-.155.259-.209-.28zm5.64.748c.048.216-.078.239-.195.313-.075-.209.032-.261.195-.313zm-2.929-1.133v-.31l.279.149-.279.161zm-2.029 6.935c-.042-.214.079-.241.2-.311.073.207-.034.258-.2.311zm3.656-2.67l.19.24-.35.05.16-.29zm-4.98.122h.318l-.144.267-.174-.267zm7.364 2.513l-.165.289-.186-.243.351-.046zm-.531-6.051l-.24.19-.05-.351.29.161zm-4.721 2.054l.162.263h-.33l.168-.263zm-1.929-.341l.24-.192.05.351-.29-.159zm6.419 2.136l-.166.289-.185-.242.351-.047zm-5.909-.654l.145-.189.185.225-.287.043a5.662 5.662 0 01-.043-.079zm-3.113 1.326v-.136l.282-.022-.131.271-.15-.113zm-3.732 2.199l.186.149a25.02 25.02 0 00-.228.18l-.04-.287.082-.042zm5.178-3.345l-.186-.148.228-.181.041.288-.082.041zm2.895.487h.131l.02.234-.151.03v-.264zm5.047-.038l.244-.058.032.159h-.264l-.012-.101zm-3.622-1.585v-.14h.245c.008.237-.14.132-.245.14zm2.11 1.199h-.247v-.169h.247v.169zm-2.232 3.116l.232.146-.182.094c-.03-.045-.182-.088-.05-.24zm.971-6.449l.138.246a45.894 45.894 0 01-.378-.165l.24-.081zm-5.052 2.645l.058.244c-.06.011-.098.02-.159.032v-.265l.101-.011zm-10.307 3.906h-.13l-.02-.233.15-.031v.264zm7.297-4.882l.206-.131c.134.151-.018.194-.071.274l-.135-.143zm-1.94 2.743v-.131l.234-.02.03.151h-.264zm9.144-3.976l-.136.106-.145-.203c.184-.115.223.023.281.097zm-1.989 3.321l-.13-.13.203-.145c.127.156-.018.199-.073.275zm4.1-3.372v.139h-.245c-.008-.236.14-.132.245-.139zm-7.402 4.4l-.23-.126.154-.133.14.187-.063.072zm3.695 2.4l-.126.236-.132-.159.185-.138.073.061zm-5.953-1.403h-.14v-.245c.236-.008.132.14.14.245zm-8.877 2.187v-.131l.234-.02.03.151h-.264zm16.188-3.019h.14v.239h-.14v-.239zm-11.965 2.322l.126-.234.131.158-.184.138a1.487 1.487 0 01-.073-.062zm2.794-1.523l.126-.235.132.157-.185.139a3.923 3.923 0 00-.073-.061zm13.122 2.15h-.14v-.239h.14v.239zm-8.814-.107l-.183-.122.184-.217v.339zm7.243-5.636h.343l-.189.198-.154-.198zm-7.096 5.043l-.196.036v-.304l.196.268zm-.254-.735c-.04-.038-.078-.077-.122-.121l.105-.113c.145.122.145.122.017.234zm-1.587-.824l.11.11-.133.115-.14-.129.163-.096zm9.134-.06l.042.194h-.303l.26-.194zm-12.543.274l.11.178a27.46 27.46 0 01-.247.016l.046-.182c.03-.004.061-.007.091-.012zm7.75-.996l-.116.173c-.045-.041-.083-.075-.142-.131l.173-.127.085.085zm4.085-6.244l.109-.109.116.132-.13.141a19.093 19.093 0 00-.095-.164zm-.777 6.004l-.034.196-.27-.196h.304zm-9.781 3.352l.24-.19.074.19h-.314zm11.896-3.068a9.579 9.579 0 00-.128.117l-.132-.116.127-.128c.04.038.079.074.132.127zm-9.34.061l.109.109-.132.116-.14-.13.163-.095zm6.778-3.253h-.228v-.173l.245.114-.017.059zm-2.768 1.854v-.342l.198.188-.199.154zm-3.58-.018l-.195-.265.196-.039v.304zm8.746-.357l.327-.031-.022.215a24.435 24.435 0 00-.305-.184zm-3.982 2.083l-.032.212-.273-.168.305-.044zm-3.974.134c.082.111.13.176.197.27-.085.014-.132.024-.196.035v-.305zm8.649-3.322l-.078.19-.234-.19h.312zm-.264 5.509l.15.291-.15.03v-.321zm-7.295-3.829h.15l.024.125c-.112.066-.182.065-.175-.125zm.414 1.603v.151l-.124.024c-.066-.112-.065-.182.124-.175zm6.443-.233v.123l-.149.031-.03-.154h.179zm-.747 2.745l-.184-.184.14-.141.044.325zm-14.072-1.604v-.123l.149-.031.031.154h-.18zm-8.145 1.719l-.274-.019.18-.156.094.175zm18.815-3.113v.122l-.149.031-.031-.153h.18zm1.77-.171l-.22.181-.036-.181h.256zm1.736-2.803a50.022 50.022 0 01-.18-.148l.21-.04.026.132-.056.056zm-.266-2.722h.123l.03.148-.153.031v-.179zm-10.488 7.887l-.181-.147.211-.04.025.131-.055.056zm10.723-5.513a10.008 10.008 0 01-.16-.013l-.013-.143.16-.018.013.174zm-3.983-.32v.122l-.149.032-.031-.154h.18zm2.379 5.205l.22-.179.036.179h-.256zm-.199-6.582h-.124l-.03-.148.153-.032v.18zm-4.12.994l.22-.18.037.18h-.257zm5.835-3.896v-.122l.148-.031.032.153h-.18zm-6.605 5.336v-.124l.149-.03.03.154h-.179zm8.554 3.924h.15l.024.125c-.112.065-.182.064-.174-.125zm-6.106-.325v.135h-.25l.25-.135zm4.822.833h.14l-.11.164-.03-.164zm-12.429-1.096v-.139l.165.108c-.053.011-.09.017-.165.031zm3.395 1.454l-.015-.191.197.016-.182.175zm6.316-3.899a9.08 9.08 0 01.164-.031l.05.24-.215-.209zm4.488-.192v.254h-.043v-.254h.042zm-7.407.05l.112-.178c.016.205.016.205-.112.178zm1.032-1.38a29.338 29.338 0 00-.113-.18c.108-.019.209-.046.113.18zm2.857-.141a5.912 5.912 0 01-.17.043l-.025-.222.195.179zm1.782-.414l-.165.031-.05-.241.215.21zm-6.202 6.864l-.247.012a3.786 3.786 0 01-.005-.057l.25-.033.002.078zm-4.835-3.382v.139l-.164-.108.164-.031zm-1.191 3.384h-.225a89.835 89.835 0 01-.005-.043l.222-.032.008.075zm7.888-1.361h-.17v-.043h.17v.043zm-4.672-.472v.141l-.042.006-.03-.142.072-.005zm3.304 1.461l.058-.205c.013.039.031.077.037.118.001.012-.03.029-.095.087zm8.044-1.49h-.14l-.007-.04.138-.033.009.073zm-8.892.282v.14l-.04.006-.034-.137a.917.917 0 01.074-.009zm-3.698.339h.14l.007.04-.138.033-.01-.073zm8.184.056h-.14l-.006-.042.142-.03.004.072zm2.911-6.915h.14l.006.042a7.311 7.311 0 01-.142.031l-.004-.073zm-2.797-2.625h.14l.007.041-.138.033-.009-.074zm.932 6.662v-.141c.014-.001.027-.004.04-.006l.034.138-.073.009zm2.257 4.064h-.14l-.006-.042.141-.031.005.073zm-4.965-5.137h.14l.006.042-.141.03a10.52 10.52 0 01-.005-.072zm-5.11-.113h-.14l-.007-.041.138-.033.01.074zm2.66-.579v-.169h.042v.169h-.042zm2.109-1.002h.14l.007.041-.138.033-.009-.074zm-12.969 6.28h.085v.028h-.085v-.028zm1.608.509h.086v.028h-.085v-.028zm-3.189-.029v-.085h.029v.085h-.029zm19.984-.507v-.085h.029v.085h-.029zm-16.427.169v-.085h.028v.085h-.028zm4.318.423v-.085h.029v.085h-.029zm11.347-9.399v-.085h.028v.085h-.028zm.113.169v.085h-.028v-.085h.028zm-3.443.96h.084v.028h-.084v-.028zm3.415.734v-.085h.028v.085h-.028zm-11.093 1.1v-.085h.028v.085h-.028zm7.678 3.416h.084v.028h-.084v-.028zm-5.363.818v.085h-.028v-.085h.028zm9.145 0v.085h-.028v-.085h.028zm-7.057.169v-.084h.029v.084h-.029zm-1.326 0v.086h-.028v-.086h.028zm7.048.179l-.069-.059a3.38 3.38 0 00.027-.027l.06.069-.017.017zm-13.879.104h.085v.029h-.085v-.029zm-1.693.621h-.085v-.028h.085v.028zm9.004.197v-.084h.028v.084h-.028zm1.806.085v.085h-.028v-.085h.028z" fill="#CC2C3D"/><path d="M81.587 126.751l.07.06-.027.026-.06-.069.017-.017zm-6.951 1.562h.085v.029h-.085v-.029zm2.936.056v.085h-.029v-.085h.028zm4.778.092l-.058.07a6.797 6.797 0 00-.027-.027l.07-.059.016.016zm-11.948.472h-.085v-.028h.085v.028zm10.895.283v.084h-.028v-.084h.028zm2.145.057h-.084v-.028h.084v.028zm-9.729.374l-.059.07-.026-.028.069-.058.016.016zm.584.275h.085v.028h-.085v-.028z" fill="#CC2C3D"/><path d="M41.346 74.604a.138.138 0 01-.116-.213 1.29 1.29 0 011.748-.411.138.138 0 01-.142.237 1.017 1.017 0 00-1.373.323.138.138 0 01-.117.064zm19.78-.165a.138.138 0 01-.018-.274c.448-.06.971-.342 1.13-.841.18-.57-.184-1.152-.349-1.377a6.642 6.642 0 00-.548-.622 7.765 7.765 0 01-.512-.574 4.94 4.94 0 01-.562-.937.138.138 0 01.066-.184.139.139 0 01.183.066c.165.35.339.638.53.885.15.193.326.376.495.553.195.204.397.415.57.65.402.546.544 1.137.39 1.623-.17.533-.715.948-1.357 1.031l-.018.001zm14.239-47.491a.138.138 0 01-.133-.102c-.208-.763-.43-1.5-.847-2.134-.304-.458-.713-.826-1.152-1.036a.138.138 0 11.12-.25c.483.232.931.635 1.262 1.134.44.667.669 1.428.883 2.214a.138.138 0 01-.133.174z" fill="#BF453F"/><path d="M74.343 34.043a.137.137 0 01-.112-.218 4.062 4.062 0 00.474-3.74.138.138 0 01.095-.184c.694-.173 1.475-.421 2.018-.952.478-.469.786-1.312.414-1.953-.121-.208-.295-.35-.477-.387-.19-.038-.402.03-.588.089l-2.973.951c-.557.179-1.134.363-1.623.69-.528.35-.875.84-.95 1.34a.138.138 0 11-.273-.041c.087-.578.477-1.135 1.07-1.53.521-.347 1.117-.537 1.692-.721l2.972-.952c.208-.066.467-.149.728-.096.26.052.5.242.66.519.448.77.108 1.733-.459 2.288-.55.538-1.305.804-1.996.985.434 1.268.22 2.765-.56 3.854a.138.138 0 01-.112.058z" fill="#BF453F"/><path d="M72.209 27.988a.138.138 0 01-.131-.094 4.04 4.04 0 00-.724-1.303.138.138 0 01.213-.177c.342.415.602.883.772 1.393a.138.138 0 01-.087.175.143.143 0 01-.043.006zm2.885 3.318a.137.137 0 01-.123-.076.137.137 0 01.06-.185c.522-.267.88-.818.91-1.404a.138.138 0 01.145-.13.137.137 0 01.13.145 1.98 1.98 0 01-1.06 1.634.14.14 0 01-.062.016z" fill="#BF453F"/><path d="M76.31 30.98a1.66 1.66 0 01-.679-.139.138.138 0 01-.069-.183.14.14 0 01.183-.069c.78.354 1.733-.133 2.167-.787.415-.625.574-1.474.484-2.6-.06-.762-.207-1.52-.435-2.254a5.243 5.243 0 00-.527-1.192.138.138 0 01.235-.145c.22.358.408.781.556 1.256.234.752.384 1.53.446 2.313.095 1.19-.078 2.097-.53 2.775-.466.703-1.19 1.024-1.83 1.024z" fill="#BF453F"/><path d="M78.38 30.875c-.338 0-.678-.074-.998-.24a.138.138 0 01-.06-.186.138.138 0 01.187-.06c.838.435 2.226.187 3.007-.973.734-1.088.689-2.464.522-3.427a5.18 5.18 0 00-.358-1.23.137.137 0 01.069-.183c.07-.031.15 0 .182.07.168.372.292.796.379 1.295.175 1.014.22 2.466-.565 3.63-.496.736-1.426 1.304-2.365 1.304z" fill="#BF453F"/><path d="M80.802 31.04c-.51 0-.99-.165-1.35-.482a.137.137 0 11.182-.207c.483.425 1.223.531 1.93.277a.138.138 0 11.093.26 2.532 2.532 0 01-.855.152z" fill="#BF453F"/><path d="M80.193 40.792c-.396-.007-.771-.01-1.138-.014-1.679-.017-3.129-.03-5.396-.426l.07-.407c2.235.39 3.67.403 5.33.42.368.002.745.006 1.142.014l-.008.413z" fill="#323B6E"/><path d="M17.45 35.066a.138.138 0 01-.13-.092 5.52 5.52 0 01.16-4.12c-.637.166-1.354.347-2.046.164a1.773 1.773 0 01-1.118-.953c-.157-.35-.158-.713-.003-1.02.321-.637 1.109-.799 1.836-.873l2.53-.258c.21-.022.451-.042.688-.046a.14.14 0 01.137.14.138.138 0 01-.138.137h-.01a6.31 6.31 0 00-.65.043l-2.529.258c-.653.067-1.356.204-1.618.723-.15.298-.078.59.009.783.17.38.538.693.937.798.638.17 1.305-.006 1.95-.175l.248-.064a.139.139 0 01.155.198 5.232 5.232 0 00-.278 4.17.137.137 0 01-.083.177.124.124 0 01-.047.01z" fill="#BF453F"/><path d="M15.83 28.49a.137.137 0 01-.134-.103 6.992 6.992 0 00-.935-2.075 4.562 4.562 0 00-.485-.62.138.138 0 11.2-.19c.174.182.342.397.515.657a7.26 7.26 0 01.972 2.158.137.137 0 01-.133.172zm-1.604 4.33c-.385 0-.76-.114-1.05-.337a.138.138 0 01.168-.22c.413.318 1.064.37 1.583.126.528-.248.97-.765 1.241-1.456a.139.139 0 01.18-.078.139.139 0 01.077.18c-.298.757-.789 1.327-1.381 1.605-.26.12-.541.18-.818.18z" fill="#BF453F"/><path d="M11.082 33.178a.138.138 0 010-.276c.77-.008 1.616-.092 2.055-.658.46-.592.289-1.48.12-2.097a15.47 15.47 0 00-1.106-2.874c-.168-.333-.374-.709-.689-.952a1.38 1.38 0 00-.332-.187.137.137 0 01-.078-.178.139.139 0 01.179-.079c.145.058.28.133.4.226.36.278.584.686.766 1.047.472.933.85 1.918 1.126 2.924.185.674.368 1.649-.168 2.339-.511.66-1.435.757-2.271.765h-.002z" fill="#BF453F"/><path d="M9.97 33.765a1.67 1.67 0 01-.727-.162c-.62-.303-1.102-.966-1.355-1.864a.137.137 0 01.095-.17.138.138 0 01.17.095c.135.475.47 1.328 1.212 1.691.338.166.773.18 1.135.035.285-.114.493-.315.585-.565.098-.263.077-.561.04-.844a7.539 7.539 0 00-1.545-3.676c-.154-.196-.363-.437-.616-.558a.138.138 0 01-.064-.184.138.138 0 01.184-.065c.304.146.54.417.713.636a7.811 7.811 0 011.601 3.811c.042.319.064.657-.054.975-.12.325-.384.583-.742.726-.198.08-.416.12-.632.12zm7.259-1.683l-.009-.001a1.763 1.763 0 01-1.197-.572.138.138 0 11.205-.185 1.49 1.49 0 001.008.481.138.138 0 01-.008.277z" fill="#BF453F"/><path d="M54.635 94.295a7.776 7.776 0 01-1.712-.176c-1.32-.299-2.48-.993-3.601-1.664l.212-.356c1.094.655 2.225 1.333 3.48 1.616 1.335.302 2.756.137 4.098-.057l.06.409c-.826.12-1.682.228-2.537.228zM15.792 45.59l-.067-.408a12.06 12.06 0 004.504-1.73l.223.35a12.49 12.49 0 01-4.66 1.789zm25.128 87.992l-20.652-.006v-.414l20.653.005v.415zm128.665.035l-118.525-.032v-.415l118.525.033v.414z" fill="#323B6E"/><path d="M51.06 133.584H40.92v-.414h10.14v.414z" fill="#323B6E"/><path d="M51.17 137.078a49.167 49.167 0 01-.385 1.552l-.017.063-8.897.014a10.606 10.606 0 01-.84-1.643c-.519-1.239-.931-2.7-1.257-4.179a38.26 38.26 0 01-.25-1.206 57.227 57.227 0 01-.59-3.847 64.928 64.928 0 01-.314-3.327l1.113-.032 12.897-.365s.181 5.911-1.46 12.97z" fill="#fff"/><path d="M39.525 131.678c.076.401.16.806.25 1.207-1.613.431-3.476-.076-4.542-1.362-1.088-1.311-1.194-3.388-.137-4.724.47-.593 1.169-1.039 1.926-1.065.623-.022 1.207.232 1.745.565.044.45.099.968.167 1.533-.627-.606-1.692-.697-2.413-.201-.695.482-1 1.426-.796 2.245.204.818.868 1.487 1.66 1.778.683.249 1.444.236 2.14.024z" fill="#fff"/><path d="M41.872 138.914v-.414l8.895-.014.001.414-8.896.014zm94.713-3.65a26.308 26.308 0 01-1.406-8.767v-.025l3.953-.071 3.057-.055 4.146-.073.001.1a26.33 26.33 0 01-1.942 10.819l-7.033.078a25.642 25.642 0 01-.776-2.006z" fill="#323B6E"/><path d="M141.68 114.116c.123 4.047.495 8.933.509 12.203v.027l-3.057.055-.001-.014c-.068-.753-.138-1.505-.207-2.258-.054-.574-.12-1.182-.479-1.632-.409-.549-1.345-.988-2.192-1.525-.418-.262-.831-.571-1.059-1.007-.23-.439-.22-1.036.145-1.37.24-.221.597-.29.917-.228.321.061.611.242.853.46.23.208.427.456.682.633.207.143.572.314.746.032a.688.688 0 00.08-.34c.002-.048.001-.096.002-.143.009-.468-.089-.962-.126-1.431a49.513 49.513 0 01-.103-1.584 26.599 26.599 0 01.014-3.182c.042-.602.147-1.269.625-1.638.652-.502 1.671-.121 2.125.563.455.686.501 1.556.526 2.379z" fill="#FF5C6C"/><path d="M144.326 137.091h-.137l-.135-.316.134-.026.138.172v.17zm-6.605-.762h.172l-.018-.162c-.146-.002-.146.001-.239.077h-.338c.203.136.34.21.431.331-.006.004-.011.011-.017.016l.06.069a.65.65 0 01.026-.027.238.238 0 00-.077-.05v-.254zm-.254-.508c.029.174.159.022.23.131l.051-.364c.091.349.371.36.566.487l.09.154-.1.226.046.043.094-.084c.2.099.2.1.313.337l-.259-.06-.147.244.322-.137-.089.267c.018.005.055.024.092.025.181.005.297-.11.416-.223.054-.053.123-.088.27-.19l-.114.339.095.195c-.277.193-.559-.128-.839.029a1.626 1.626 0 00-.066-.06l-.059.058-.4-.205c-.056-.144.088-.258.144-.413-.071-.075-.112-.164.025-.248l-.138-.128-.106.677h-.521v-.169l.084-.064a4.288 4.288 0 01-.084-.105c0-.014.005-.033-.001-.04-.038-.041-.078-.078-.138-.135l-.15.22a35.711 35.711 0 00-.113-.368h.204c.016-.202.092-.361.282-.439z" fill="#F57D77"/><path d="M138.526 135.969l.281-.144.199.42.128-.085.352.115v.23l-.115-.083-.165.123-.107-.227-.208.102c-.146-.123-.117-.364-.365-.451zm-.487-.945l-.313.426-.175-.288c.028-.07.066-.14.083-.214.017-.074.014-.153.019-.227h.122l.056.166c.032-.021.057-.041.119-.086l.089.223zm-1.4-.04l.127-.013.051.497c.08-.2.044-.408.292-.411v.399l-.339.109c-.168-.167-.176-.367-.131-.581zm3.449 2.196c-.017.162-.151.022-.204.107l-.08-.187-.136.076v-.241c.078-.004.16.002.235-.016.075-.018.144-.059.21-.087.128.077.184.175.125.344-.042 0-.094 0-.15.004.002 0 .008-.006.013-.011l-.059-.07-.027.027c.023.02.047.039.073.054zm-1.722-1.884l.139-.097.153.274-.495.204-.025-.468.228.087zm1.376 1.056l.423-.238-.035.292.056.144c-.229.1-.323-.056-.444-.198zm1.198.434c.147-.075.246-.028.33.087v.289h-.216l-.114-.376zm-1.799-1.637l.145.238-.262.014c-.014.037-.029.084-.051.149h-.23c.003-.047-.01-.104.009-.119.122-.097.252-.185.389-.282zm-2.261-.668l-.133.432c-.188-.098-.219-.246-.209-.432h.342zm-.492-.767c-.012-.064-.019-.089-.021-.116-.001-.012.009-.024.017-.044.101-.017.206-.033.311-.052.084-.015.167-.036.281.011-.039.035-.074.085-.12.104-.151.061-.312.072-.468.097zm5.067 3.462c-.026-.196.076-.156.151-.173.074-.017.139-.062.214-.099.034.071.054.134.092.182.051.067.035.089-.04.09h-.417zm-3.734 0c-.104.04-.196.15-.324.057-.099-.073-.129-.169-.083-.282.006-.016.045-.019.069-.03.034.029.069.081.104.081.126.001.201.055.234.174zm-1.49-3.071c.083-.11.135-.179.185-.243.196.053.229.168.184.35-.048-.031-.087-.069-.131-.082-.061-.017-.127-.015-.238-.025zm3.166 1.999l-.112-.356.085-.096c.185 0 .204.1.027.452zm-1.954-.66l-.1.129c-.169-.225-.171-.243-.018-.463l.118.334zm2.377 1.055l.069.319h-.285l.099-.319h.117zm-3.283-2.287l-.137.579c-.017-.149-.019-.221-.036-.29-.013-.059-.044-.116-.067-.173.035-.036.068-.086.115-.112.031-.018.081-.004.125-.004zm4.042 2.547a140.28 140.28 0 00-.272-.314l.251-.037.114.225-.093.126zm1.813-.253h.226v.233l-.226.018v-.251zm-2.367-.978l.27.167-.231.124c-.149-.019-.033-.151-.039-.291zm-2.946-1.591l.186.241-.352.047.166-.288zm-1.034-.865l.27.168-.232.123c-.148-.019-.032-.151-.038-.291zm4.216 1.945l-.13.129a12.508 12.508 0 01-.143-.202c.154-.127.198.018.273.073zm-3.262 1.081l-.285-.385.333.144-.048.241zm4.102.245v.141h-.239v-.141h.239zm.191-.43h.14v.245c-.237.008-.132-.141-.14-.245zm1.946.121l-.127.226-.14-.146.197-.144.07.064zm-3.494 1.202l-.326.031.021-.215c.103.063.172.105.305.184zm2.931-.242l.07.163-.261.023c.086-.123.086-.123.191-.186zm-5.431-2.738l.266.196h-.304l.038-.196zm4.826 2.405h-.258c.082-.113.082-.113.187-.175l.071.175zm-3.273.07c.03-.07.047-.113.078-.189l.234.189h-.312zm-.894-2.723l-.147.181-.04-.211.131-.026.056.056zm-1.051-.905l-.179-.219.179-.037v.256zm6.64 3.446l-.147.18-.04-.211.131-.025.056.056zm-6.405-.994l.228.127c-.151.131-.195-.02-.228-.127zm1.374.428l-.18-.221.18-.036v.257zm1.012-1.449l-.188.189-.124-.144.312-.045zm2.305 1.796v.151l-.124.024c-.066-.112-.064-.182.124-.175zm.409.761h-.123l-.03-.149c.055-.01.092-.019.153-.031v.18z" fill="#F57D77"/><path d="M139.11 136.088l-.18-.148.211-.04.025.131-.056.057zm-1.897.58c.008-.127.106-.072.17-.085v.169h-.085l-.085-.084zm6.283.437h.224l.004.045-.228.03v-.075zm-4.928-1.115c-.04.164-.171.053-.254.085.04-.163.17-.052.254-.085zm2.146.051l.114-.093c.01.119.01.119-.114.093zm-.92-.121l-.21-.06c.04-.013.078-.03.119-.036.012-.002.029.03.091.096zm-.358 1.002v-.17h.042v.17h-.042zm1.167.32l-.162.013-.008-.054.165-.032.005.073zm2.606-.081h-.14a.652.652 0 00-.005-.041l.141-.031.004.072zm-2.594-.225h.141l.006.042-.141.03a10.472 10.472 0 01-.006-.072zm3.105-.028h-.141l-.006-.041.138-.032.009.073zm-6.52-2.203h-.14l-.008-.04.138-.033.01.073zm-1.024-1.086v.17h-.042v-.17h.042zm1.289 2.136l.162-.014.007.055-.164.032-.005-.073z" fill="#F57D77"/><path d="M140.592 137.169l.058-.07.028.027-.07.059-.016-.016zm-2.863-.002l.069.059a.331.331 0 00-.026.027l-.06-.07.017-.016zm3.041-1.741h.084v.028h-.084v-.028zm1.665.564v.085h-.028v-.085h.028zm-2.822-.508v-.084h.028v.084h-.028zm-3.133-.508v-.085h.027v.085h-.027zm.733 1.778a3.43 3.43 0 01-.07-.056l.07-.028v.084zm.085 0l-.057.071a2.087 2.087 0 00-.028-.071h.085zm3.31-.008l.07.059-.028.026-.058-.069.016-.016zm2.335.008v.085h-.028v-.085h.028zm-6.52-4.318v.085h-.029v-.085h.029zm1.213 3.81l.085.086-.085-.086z" fill="#F57D77"/><path d="M43.34 136.72v-.022h-.066v.022h.066zm-.64.553h.022v-.067H42.7v.067zm1.258.264h.022v-.066h-.022v.066zm-1.016-.646v.034h.133v-.034h-.133zm.983.774l.12.214.12-.196-.24-.018zm-1.252.238l.224.106.16-.324-.047-.046.122-.128-.087-.17-.277.081-.095.481zm.457-.82l-.265.09.265.117c0-.089 0-.153.004-.222a.177.177 0 01.013.013l.054-.046-.02-.021a.425.425 0 00-.051.069zm1.273 1.246c-.003-.052-.003-.106-.003-.165l-.133-.06c0-.038 0-.07-.003-.106l.01.01.053-.046-.02-.021a.34.34 0 00-.043.057c-.07-.006-.126.172-.213.001-.096.052-.15.209-.302.11v-.145l-.144-.048v-.18l.125-.084-.085-.177-.31.085c.064.089.203.151.117.3h-.27l-.11.11.114.096.087-.16c.135.119.209.243.376.247.039.001.076.111.107.158l-.195.292c-.146-.033-.1-.098-.032-.163l-.085-.171-.076.063-.163-.22-.179.247a39.802 39.802 0 01-.37-.166l-.356.065c-.076-.119.072-.147.11-.224v-.273l.178-.121c-.046-.105-.103-.227.036-.35a7.453 7.453 0 00-.13-.026v-.397l.154.05.211-.061.272-.319-.067-.155.319-.112c.01.061.021.119.034.188l.105.036c.069.187-.043.344-.07.513-.046 0-.08 0-.115.004l.01-.009-.046-.055-.021.021a.342.342 0 00.057.043c.017.125.135.018.203.118l.094.275.155-.146.147.147c0-.082-.023-.166.006-.225.03-.057.071-.103.057-.175l.01.01.053-.047-.02-.021a.384.384 0 00-.043.058c-.12.033-.209-.065-.345-.08l.095-.436h.166l.04.121h.18l-.072.231c.036.015.078.033.143.058v.267c.066-.032.1-.051.135-.066.028-.013.057-.023.12-.048l-.037.203.253.038-.098.231c-.103.053-.176.005-.271-.178h-.163c-.002.037-.018.082-.004.093.12.099.245.192.359.279l.132-.055c.092.157-.028.225-.136.351l.301-.08.066.067c-.087.147-.226.268-.204.469.004.043-.066.093-.11.151l-.118-.084-.085.077-.11-.282c.083 0 .123 0 .167-.003a.197.197 0 00-.01.009l.046.054.02-.02a.342.342 0 00-.056-.043z" fill="#CCC"/><path d="M42.081 137.184v-.022h-.066v.022h.066zm-.662-.242l.176.044.094-.282-.126-.041v-.22c.145-.045.162-.247.33-.305l.09.072a2.11 2.11 0 01.069-.06l.094.094c-.06.04-.147.065-.174.121-.035.071-.07.115-.16.137.012.058.028.116.036.174.006.044.001.089.001.174l.267-.231h.152c.038.142-.022.239-.12.323a2.104 2.104 0 00-.022-.055l-.044.055-.055.022.054.044.022.054.045-.054c.04.007.116.014.115.021 0 .105.1.11.175.148l-.088.142.184.129-.242.033v.17h-.272c-.026-.166.126-.149.194-.214 0-.033 0-.065-.004-.101l.01.01.054-.047c-.007-.007-.014-.013-.02-.021-.016.019-.032.037-.044.058a8.981 8.981 0 01-.138-.072l-.097.075-.28-.091-.032-.214-.072.176-.308-.043-.16-.263.164-.029.066.067.022.125a.645.645 0 00.044-.005v-.12zm.467-1.262a4.249 4.249 0 01-.167-.183l-.053.246c-.11.017-.138-.017-.18-.208.205-.163.414-.315.715-.239v-.193l.288-.023c-.03.045-.047.063-.053.084-.011.04-.016.081-.023.121h-.136l.084.148-.31.236.304.114-.106.396a42.32 42.32 0 01-.23-.217l-.015-.134c-.02.006-.042.006-.049.017-.05.077-.099.158-.154.247a8.354 8.354 0 00-.095-.087l.068-.322c.027 0 .068 0 .112-.003a.035.035 0 00-.01.009l.046.054.02-.021a.336.336 0 00-.056-.042zm2.911 2.254c.004-.082-.027-.174.063-.233l-.204-.118.204-.249.01-.185.166-.015.137-.286c-.095.052-.13.073-.169.095-.11-.021-.12-.076-.096-.183.016-.07-.04-.155-.058-.218.07-.115.146-.159.255-.12.075.129-.014.239-.069.395l.254-.074.1.093-.068.083.083.184-.144.067v.103c-.102-.016-.16.037-.2.122-.038.084-.079.165-.127.265l.127.102c.012.16-.041.246-.198.239a3.824 3.824 0 01-.066-.067zm-3.775-2.583l.165-.086.053.161-.162.102.305.104.14.283-.044.215.206.033-.444.445h-.19l-.088-.173c.03-.08.18.048.191-.09h.107l.078-.445-.172-.13-.278-.087c-.01-.132.1-.216.133-.332zm.861-.463l-.161-.113-.203.065-.077-.144-.308-.014.085-.269.333-.253.066-.067.397.133-.066.199h-.172l-.042-.123-.173.08c.026.054.05.107.079.164l.15-.075c.013.152.117.266.092.417zm2.719 1.924l.158.116-.108.129c-.013.004-.026.011-.028.009-.1-.144-.263-.197-.443-.278.08-.06.141-.103.202-.147-.002-.002-.01-.029-.02-.029-.076-.003-.152-.002-.228-.002v-.174c.15-.101.274.122.42.038l.23-.169.016.212-.203.129c0 .052 0 .108.004.166l-.01-.01-.054.046.021.021c.015-.018.03-.036.043-.057z" fill="#CCC"/><path d="M40.867 134.756h-.022v.066h.022v-.066zm.155.595h-.235c-.02-.042-.04-.087-.062-.131l-.075.065c.003-.16.003-.16.252-.242-.046-.01-.075-.017-.105-.022-.031-.005-.062-.007-.118-.014l.055-.147-.06-.206.307-.123.113.157-.124.167c.05.06.095.13-.012.194.11.084.047.202.064.302z" fill="#CCC"/><path d="M40.629 133.817l.17.065.109-.079.116.218c-.178.33-.22.382-.46.564l.087.145-.131.029-.052-.128-.165-.018v-.172l.338-.124.2-.298-.233-.17.021-.032zm.428 1.296l.11-.261.262.02.238.192-.038.049.07.119-.168.137c-.17-.093-.312-.169-.474-.256zm1.621 1.249v.033h.132v-.033h-.133zm-.128-.192l.31.064c.12.071.074.179.085.295l-.273.027.085.109-.16.207-.126-.183.052-.11c-.009-.02-.025-.06-.045-.099-.018-.036-.04-.071-.059-.106l.131-.204zm-.402-1.613c.096-.044.176.057.282.025.076-.022.171.033.259.039.105.008.212.002.325.002-.015.167-.108.175-.217.211-.072.024-.167-.041-.217.052l-.14-.132-.22.075c-.102-.046-.154-.105-.139-.206l.067-.066zm3.11 3.658l.124-.092.11.249.453.17c-.034.034-.042.048-.05.048-.162-.012-.34-.075-.483-.029-.165.053-.313.008-.516.05l.118-.216.11.08.19-.186-.056-.074zm1.448-.143l.047.126-.072.171-.132-.1-.067.067-.253-.324a21.418 21.418 0 01-.167-.025v-.306h.252l-.042.173.31.277.124-.059zm-3.167-2.058l-.096.045c-.134-.012-.096-.139-.102-.212h-.191v.148h-.309l.27-.397.131.076.089-.062c.146.036.126.229.273.242.003.001 0 .061 0 .094l-.065.066zm-3.032-2.375l-.224-.11.066-.138-.062-.066c-.07.012-.144.036-.217.035-.033-.001-.065-.053-.12-.101l.119-.049a1.005 1.005 0 00-.026-.034h.575l.008.177-.173.018.054.268zm7.138 4.561v.265l-.106.126c-.174.036-.32-.041-.485-.23l.315-.044.03-.117h.246zm-3.27-2.334l.404.189.12-.049c.065.128.02.204-.08.28-.01-.043-.02-.078-.033-.127h-.396l-.151-.126.136-.167zm2.986 1.351l.085.095c0 .115-.079.15-.264.131l.08-.089-.178-.017-.14.139-.105-.134.09-.125h.432zm-3.368 1.369l.085-.103c-.158-.017-.317-.039-.262-.281.06.012.127.023.192.037.06.014.12.03.186.048v.299h-.2zm1.493-.747l.145-.165h.147l.176.294-.146.119-.322-.248z" fill="#CCC"/><path d="M43.605 135.948h.12l.02.316c.028.005.061.021.086.012.028-.009.048-.041.091-.08l.02.231c-.088-.034-.149-.059-.218-.087l-.056.042-.153-.069.095-.164a9.117 9.117 0 01-.072-.135l.067-.066zm1.64.307c-.06-.057-.102-.099-.154-.15.137-.202.322-.176.493-.249v.205c-.057.013-.124.014-.176.042-.053.03-.093.085-.163.152zm-4.075.128l-.26-.123-.081-.262.188.081.219-.093-.067.397zm-1.06-5.027c.093.125.145.247.103.409h-.228c-.065-.059-.034-.188.125-.409zm1.442 2.804h-.168l-.101-.296.14-.129.062.086c.022.035.04.072.065.104.02.026.054.044.065.071.012.029.003.064.003.097l-.066.067zm6.868 4.24l-.13-.091-.088.156c-.105 0-.134-.046-.162-.262l.248.028.254-.045c-.06.103-.092.16-.122.214zm-6.135-4.874l-.11.11-.2-.089a5.418 5.418 0 00-.076-.15l.096-.122c.098.093.269.076.29.251zm-1.508-1.196l-.188.095-.112-.104a21 21 0 00.072-.121l-.135-.061.087-.156c.024.009.046.011.053.022.07.1.14.201.223.325zm.758 5.357a17.148 17.148 0 00-.133-.046l.108-.185.262.366-.14.165c-.092-.108-.135-.177-.097-.3zm.552.066l-.097.309h-.163v-.309h.26zm5.31.034c-.063.238-.216.268-.38.284-.036-.186-.035-.181.095-.204.079-.013.154-.042.285-.08zm-4.585-1.877l-.41-.105.3-.21.11.315zm-.745-1.1v.262h-.263c.037-.148.114-.226.263-.262zm-.737-2.933l-.265.127-.12-.263c.04-.017.064-.036.076-.03.092.045.182.097.309.166zm1.829 2.364a37.169 37.169 0 01-.264-.141l.264-.154.108.187-.108.108zm-.746 1.045c.112.01.241-.045.329.105a6.892 6.892 0 00-.17.121c-.026.043-.12-.085-.16-.226zm3.322 1.741l.186.167v.137l-.186.01v-.314zm-5.541-6.113l.093.187-.211.102c-.026-.041-.048-.06-.046-.075.016-.136.017-.136.164-.214zm.723 2.63l-.142.17c-.14-.073-.195-.152-.115-.297l.257.127zm6.887 3.94l-.103.289-.163-.23c.024-.072.11-.083.266-.059zm-7.641-5.28l-.098.098-.237-.262.039-.079c.135.045.196.167.296.243zm2.494 6.387h-.219c-.063-.106-.019-.181.087-.267l.132.267zm3.541-2.733l.078.089-.14.155-.112-.084.174-.16zm1.966 1.806h-.16l-.094-.094.093-.093h.161v.187zm-1.45.77l.196-.178c.032.014.049.016.05.022.011.051.02.103.027.149l-.094.094-.18-.087zm-5.708-2.505l-.145.02-.17-.326c.225-.014.184.196.315.306zm5.434 2.653h-.438l-.017-.077c.1-.126.216.068.318-.024.006-.005.063.046.136.101zm-2.75-2.847l.154.067.063-.054.088.116-.114.056-.216-.068.024-.117zm4.35 2.103l.103-.103.202.015c-.061.085-.1.14-.153.211l-.153-.123zm-6.025-3.612l.086-.224.18.091c-.038.147-.153.138-.266.133zm-1.045-3.506c-.097-.007-.157-.011-.268-.021l.221-.237.046.258zm3.832 4.022l-.022.268-.237-.222.26-.046zm.051 3.421l.14-.049.106.065-.144.168-.102-.184zm-2.782-1.854l.226.13-.19.145c-.012-.1-.02-.162-.036-.275zm4.659 1.76l-.071-.109.173-.131.022.229-.124.011zm-4.781-3.644c.103-.011.173.028.199.132l-.067.066h-.132v-.198z" fill="#CCC"/><path d="M43.794 136.019h.194l.023.115-.192.015-.025-.13zm-.333-.739h-.11v-.188h.11v.188zm-.509 3.307l.155-.195.094.195h-.249zm5.323-1.438l-.184-.099.126-.1.106.142-.048.057zm-2.983 1.051h-.148l-.015-.189.044-.013.12.202zm2.288-.101l.096-.096.088.082c-.096.114-.096.114-.184.014zm-5.584.283l.06-.148.184.148h-.244zm4.101-1.741a25.642 25.642 0 01-.208-.152h.238l-.03.152zm-1.34-.86l-.033-.152h.237l-.204.152zm-4.829-4.095l-.154.028v-.238l.154.21zm2.66 1.912l.028.153h-.238c.087-.062.138-.1.21-.153zm-1.948-.774l-.187.098-.034-.125c.086-.035.158-.058.22.027zm-.02.019h.238l-.204.16a61.08 61.08 0 01-.035-.16zm.766.456l.097.097-.105.113-.085-.118.093-.092zm-.099 3.576l.1-.153.065.162-.033.058h-.066l-.066-.067zm-1.187-3.022v-.201c.075.014.132.041.126.148l-.126.053zm5.158 3.417c.042.003.082.007.126.009.003.041.005.069.01.114-.04.003-.077.008-.125.013l-.011-.136zm-3.446.159v.16a9.759 9.759 0 01-.126.026c.036-.083.065-.147.092-.212l.034.026zm3.653-1.879v-.118l.097-.019c.052.088.05.142-.097.137zm-3.187-1.454l.01-.125.112-.01.014.125-.136.01zm3.38 4.055v.096l-.116.024-.025-.12h.14zm-.132-1.028v-.096l.116-.025.024.121h-.14zm-4.57-5.895v-.096l.116-.024.024.12h-.14zm6.686 7.234l.126.01.01.112-.125.014-.01-.136zm-7.696-5.892v.199h-.034v-.199h.034zm.383-.158l.073.149c-.063.01-.15.043-.073-.149zm3.647 3.065l.05.138c-.064.027-.092-.014-.05-.138zm-3.856-4.953a13.894 13.894 0 00-.063-.132c.08-.03.108.01.064.132zm6.41 8.018h.175l.004.034-.174.025-.006-.059zm1.324 0h.176c0 .012.002.023.003.034l-.173.025-.006-.059zm-4.2-1.45l.13-.025.039.188-.169-.163zm4.033-.165c-.033-.093-.05-.142-.059-.164.07-.016.07-.016.059.164zm-6.202-.267h-.132v-.033h.132v.033zm-.937-2.71h-.11l-.005-.031c.036-.01.072-.018.107-.026l.008.057zm3.005 3.788l-.01-.127.042-.005.026.129-.058.003zm5.301.263v-.132h.033v.132h-.033zm-.039.133v.066h-.022v-.066h.022zm-2.848.132v.067h-.022v-.067h.022zm-3.819-1.324v.065h-.067v-.065h.067zm2.693 1.589v.066h-.022v-.066h.022zm1.877-1.435h.066v.022h-.066v-.022zm-2.937-2.208v.066h-.022v-.066h.022zm-3.163-1.053l-.054-.046.021-.021.046.054c-.004.005-.008.01-.013.013zm-.12-.212l.054.046-.02.021-.047-.054.013-.013zm4.917 3.12v-.067h.022v.067h-.022z" fill="#CCC"/></svg>