<svg width="109" height="93" fill="none" xmlns="http://www.w3.org/2000/svg"><path d="M62.621 4.76c-22.837-13-48.867 2.548-54.46 23.54C2.57 49.292-.27 68.705 17.649 81.003c17.92 12.297 31.973-5.622 51.65 0C88.972 86.624 109 69.408 109 52.192c0-17.217-23.54-34.433-46.379-47.433z" fill="#F5AAAA"/><path d="M58.716 12.297c-22.838-13-48.867 2.549-54.46 23.54-5.592 20.993-8.432 40.406 9.487 52.704 17.92 12.297 31.973-5.622 51.649 0 19.676 5.621 39.703-11.595 39.703-28.811 0-17.217-23.54-34.433-46.379-47.433z" fill="#FF7070"/></svg>