<svg width="115" height="101" fill="none" xmlns="http://www.w3.org/2000/svg"><path d="M52.188 92.643c23.659 11.44 48.586-5.82 52.759-27.14 4.172-21.32 5.704-40.88-13-51.947-18.703-11.068-31.524 7.753-51.532 3.463C20.406 12.73 1.579 31.25 2.733 48.428 3.888 65.605 28.53 81.204 52.188 92.643z" fill="#9CCCAC"/><path d="M55.58 84.86c23.657 11.44 48.585-5.82 52.758-27.14 4.172-21.32 5.704-40.88-13-51.947-18.703-11.069-31.524 7.753-51.532 3.463C23.797 4.946 4.97 23.467 6.124 40.645 7.28 57.822 31.921 73.42 55.58 84.86z" fill="#39B864"/></svg>