<svg width="115" height="101" fill="none" xmlns="http://www.w3.org/2000/svg"><path d="M52.194 92.643c23.659 11.44 48.587-5.82 52.759-27.14 4.172-21.32 5.704-40.88-13-51.947C73.25 2.488 60.43 21.309 40.421 17.019 20.412 12.73 1.585 31.25 2.739 48.428c1.155 17.177 25.797 32.776 49.455 44.215z" fill="#EEB687"/><path d="M55.585 84.86c23.658 11.44 48.587-5.82 52.759-27.14 4.172-21.32 5.704-40.88-13-51.947C76.641-5.296 63.82 13.526 43.812 9.236 23.803 4.946 4.976 23.467 6.13 40.645 7.285 57.822 31.927 73.42 55.585 84.86z" fill="#FF8F32"/></svg>